<svg xmlns="http://www.w3.org/2000/svg" viewBox="0 0 438.43 254.1"><defs><style>.cls-1{fill:#475264;}.cls-2{fill:#48aae0;}.cls-3{fill:#fabe6f;}.cls-4{fill:#86c9f3;}.cls-5{fill:#eaf9fc;}.cls-6{fill:#fbfcfb;}.cls-7{fill:#96d9bb;}.cls-8{fill:#99d2f4;}.cls-9{fill:#f9dd1f;}.cls-10{fill:#97e2d5;}.cls-11{fill:#aae352;}.cls-12{fill:#d65e40;}.cls-13{fill:#f50d0a;}.cls-14{fill:#b2eaf9;}.cls-15{fill:#73949c;}.cls-16{fill:#fceb57;}.cls-17{fill:#eac562;}.cls-18{fill:#faf9dc;}.cls-19{fill:#456e7d;}.cls-20{fill:#0fe2fb;}.cls-21{fill:#e4ede5;}.cls-22{fill:#ea597a;}.cls-23{fill:#8dc547;}.cls-24{fill:#efa912;}.cls-25{fill:#9daeb7;}.cls-26{fill:#f4deae;}.cls-27{fill:#d8dfe1;}.cls-28{fill:#289bdc;}.cls-29{fill:#6a461c;}.cls-30{fill:#42cbb4;}</style></defs><title>edu</title><g id="Layer_2" data-name="Layer 2"><g id="Layer_1-2" data-name="Layer 1"><path class="cls-1" d="M146.31,224.15c3.67,1,3.76,1.45,2.84,5.13-1.67,6.68-3.1,13.42-4.61,20.14-.34,1.55-.59,3.12-.89,4.68h-24.3q2.36-11.76,4.7-23.53c.67-3.38,1.34-6.77,2-10.16.51-2.65,2.4-.87,3.64-1.15Z"/><path class="cls-1" d="M283.87,254.1c-1.19-3.27-2.17-6.64-3.61-9.79-1.09-2.39-.88-3.94,1.56-5,2.65-1,5.35-1.93,7.92-3.11,3.49-1.6,6.88-3.42,10.32-5.14,3.17-1.21,3.2-1.23,4.77,2q4.67,9.45,9.25,18.95a13.85,13.85,0,0,1,.66,2.13Z"/><path class="cls-2" d="M170.46,16.53c3.22-2.64,6.19-5.69,9.72-7.82a53.23,53.23,0,0,1,21.58-7.28c10.1-1.19,19.88-.18,29.12,4.08a116.16,116.16,0,0,1,13,7.63c1.06.66,1.69,2,2.52,3l-7.14,9.64c-.75-.23-1.5-.48-2.27-.65a2.44,2.44,0,0,0-.34,1c0,1.22.06,2.43.11,3.65q-1.77,2.67-3.53,5.34l-.43,1.13c-2.08,2.45-4.26,4.83-6.2,7.38a64.81,64.81,0,0,0-3.5,5.64l-7.23.39a8.31,8.31,0,0,0-.84,2.3c-.12,2.89-.08,5.78-.11,8.67-2.57.78-3.57,2.78-4,5.2a9.58,9.58,0,0,1-2.19.15c-2.27-.33-3.44.53-3.41,2.88-2-.47-3.95-1-4.45-3.56-.12-.59-1.35-1-2.07-1.44l-1-.09c-1.39-1.13-2.77-2.27-4.16-3.39-.24-.2-.5-.49-.78-.53-2.3-.29-4.6-.52-6.91-.78l0-4.93,1.37-.82-1.41-1.26c0-.68-.09-1.35-.13-2-.29-.88-.59-1.76-.89-2.64l-.61-1-.34-.49-1.22-1.46c1.43-3.25,3.15-6.24,6.77-7.53.07,2.31.06,4.63.26,6.93.06.71.69,1.37,1.06,2L208.4,46H217c1.24-.28,3.32,1.43,3.48-1.45q0-6.6-.08-13.2c-.9-.43-1.79-1.22-2.7-1.25-4.94-.16-9.89-.13-14.84-.16a5.1,5.1,0,0,0,.32-2,30.07,30.07,0,0,0-1.39-3.58l-3.44-.64c-.11-2.11-1.6-2-3.07-1.9l-1.06,1-.55.9-.93,1.65-3.52,3.09-2-1.62-3.61-2c0-.67,0-1.35.05-2h0l1.17-.91,3.86-1.28c3.19.56,5.36-1,7.32-3.31,1.09-1.3,2.9-.74,3.74.54-.4,1.18-1.2,2.36-.89,2.88.87,1.46,2.1.73,3.23,0,.87-.6,1.83-1.05,2.94-1.67-.47-.67-.73-1.45-1.24-1.69a34.6,34.6,0,0,0-6.36-2.61c-1.89-.48-3.4.49-4,2.54-.09.28-1,.28-1.6.42a25.8,25.8,0,0,0-2.78-.07c-3.61.28-7.24.95-10.84.82C175.57,18.32,173,17.2,170.46,16.53Zm61.77-5.47,2.63-.56-.09-.8h-2.52l-1.6-.44c-1.73-.78-3.44-1.23-5,.34l-1.53.09-1.44.06-8.13.12a15.07,15.07,0,0,0-2.37-.81c-3.49-.6-7-1.1-10.2,1a47.39,47.39,0,0,0-4.95,4.4c1.49-.45,2.59-.86,3.73-1.12a42.35,42.35,0,0,1,6.08-1.17,13,13,0,0,1,3.68.8c2.46,1.83,2.68,3,1.08,5.45a2.86,2.86,0,0,0,.81,4.2c1.49,1.15,2.26-.05,3.3-1a14.36,14.36,0,0,1,3.93-2.34c2.81-1.3,5.67-2.47,8.51-3.7l1-1.39,2-1.18c.27-.45.54-.91.82-1.36Zm-56.16,4.15a7.17,7.17,0,0,1,2.41,1c1.51,1.48,5.36,1.22,6.82-.63C179.09,13.08,177.66,13,176.07,15.21Zm55.75,3.47-3.6.95c.15.46.21,1.27.46,1.33C230.15,21.34,231.44,21.1,231.82,18.68Z"/><path class="cls-3" d="M278.5,227.93a54.29,54.29,0,0,1-2.69-5.4,7.44,7.44,0,0,0-5.49-4.93A26.17,26.17,0,0,1,259,211.28a22.5,22.5,0,0,1-6.44-10.91c-1.2-4.72-2.81-9.33-4.23-14L245.07,182l-.39-1.3c.39-1.06.78-2.11,1.16-3.17l1.56.1,5.44,3.83v-3.74l-1.71-4.27,0-.87-.57-1.5-.17-.08V168.7c-.53-1.45-1.07-2.89-1.61-4.33,0-.3-.08-.6-.13-.91,0-.66-.11-1.33-.16-2l.18-2.9,1-1h2.6l.28.85.8,1.11,1.7,4.52.67,1.54a23.61,23.61,0,0,0,.59,2.65c.4,1.18.94,2.31,1.42,3.46.49,1.52,1,3,1.45,4.57s1.09,2,2.74,1.49a11.71,11.71,0,0,1,3.71-.28c1.88,0,3.75.12,5.63.18,3,1.39,6.19,2.51,9,4.26a9.29,9.29,0,0,1,3.68,4.57c1.64,4.92,2.9,10,4.09,15.06a10,10,0,0,1-.07,5c-.82,2.62-.15,4.72,1.12,6.92,1.18,2,2.13,4.2,3.18,6.3,0,.32-.07.64-.1,1q-4.6,2.81-9.22,5.6Z"/><path class="cls-4" d="M236.8,29.85c-.05-1.22-.12-2.43-.11-3.65a2.44,2.44,0,0,1,.34-1c.77.17,1.52.42,2.27.65,1.44,4.71,1.48,4.71,7.61-.69a7.4,7.4,0,0,1-.95-.34c-.81-.46-1.6-.95-2.39-1.43a14.15,14.15,0,0,1,1.75-2.15c1.14-1,2.41-1.78,3.62-2.66.86,1,1.71,1.94,2.57,2.9l-.45,2.41-.87,1.46c-2.66,1.13-2,3.38-1.86,5.48l0,4.05c-.24.52-.48,1-.71,1.54a4.22,4.22,0,0,0-5.74-.34c-1.6,1.13-2.75,2.89-4.1,4.38l-1.2.39.08.43,1.15-.1c2.28-.35,4.56-.78,6.86-1,.63-.07,1.83.34,1.89.69.39,2.18,2.13,2.3,3.7,2.76l4.27,2,0,0,.72.54a.57.57,0,0,1,.3.2l1.11,1,2.23.74,2,.56,2.73.23c1.85,5.46,1.09,11,.38,16.52a49,49,0,0,1-7.7,20.93,12.67,12.67,0,0,0-.93,2.31l-2.85,3-1-.06c-.37-.65-.75-1.29-1.13-1.94l-1-4.05-1.1-2.51-.76-1.15.54-3.84c.15-.55.31-1.1.46-1.65v-1c-.31-1.06-.63-2.12-1-3.19l-.17-.85-1.43-1.59-.24-.91c0-1.2,1.6-2.55-.3-3.6h0l-2.56-.94-1.37-.69a4.81,4.81,0,0,0-1.9-.4c-3.14.71-6.25,1.43-9.4.09l0-.05.12-1.7a47.21,47.21,0,0,0,5.46-.32c.68-.11,1.7-1,1.74-1.56.17-2.91.1-5.83,0-8.74,0-.42-.62-.82-1-1.23l-8.42-.41c.57-.76,1.1-1.56,1.71-2.28,1.42-1.7,3.14-3.22,4.18-5.12.4-.72-.74-2.28-1.17-3.47l.06-1,0-1.12c.14-.38.28-.76.43-1.14a14.49,14.49,0,0,0,2.19-.08,27,27,0,0,0,2.61-.8l-.76-2.4.47-.53,1.07-.45.7-.56-.76-.45Z"/><path class="cls-5" d="M50.7,148.62,53,150.14c1.42,2.65,2.85,5.21,6.4,5.52a4.26,4.26,0,0,1,2.36,1.75A28.89,28.89,0,0,1,63.87,161c.42,1.27.84,2.54,1.25,3.81l1.62.58v.08c1.37,1.63.48,2.84-.63,4.15-.58.69-1.3,1.83-1.09,2.47s1.42,1.22,2.3,1.52c1.32.45,2.92.34,3.23,2.22l-2.35,3.32-4.08,1.94-37.9,0-2.69-.66-.84-.32-1.15-.82c-.35-.36-.7-.71-1-1.07A29.87,29.87,0,0,1,19.07,173c-.25-2.79.68-3.58,3.46-3.6,3.19,0,6.39.07,9.58,0,3.58-.12,5.31-2.83,4.12-6.24-.75-1.12-1.57-2.2-2.23-3.38a11.13,11.13,0,0,1-1.36-3.32c0-.22,1.54-.72,2.34-1.15a5.47,5.47,0,0,0,.9-.78l.08-.08,1.27-2.2a.82.82,0,0,1,.21-.36c.47-.52.94-1,1.4-1.55h0l1-.93,1.31-.77,2.28-.89,4.45-.09Z"/><path class="cls-6" d="M185.92,54.21c0,1.65,0,3.29,0,4.93a6.77,6.77,0,0,0-.15.73c-.45,6.55-2.32,9-8.4,11.13-.27.09-.46.41-1.11,1l3.3,1.39,1.26,1.44-2.45.39-2.86-1-1.21-.47-2-.78-.55-.22-2-.68-2.28-.67-13.64.2-4.2-.29c-.09-.75-.19-1.5-.29-2.25l-.46-.45.36-9.3c.74.07,1.59.42,2.2.17,1.27-.52,2.86-1.1,3.45-2.15.41-.72-.31-2.62-1.11-3.35-1.28-1.17-2.93-.9-4.24.43-.52.52-1.08,1-1.62,1.53-1.17-1-2.21-2.32-3.56-2.86s-3.25-.45-4.89-.62a10.7,10.7,0,0,1,4.09-8.68l.42-.31.1-.09,3-1.47,2-.25c1.34.09,2.68.26,4,.23,6.73-.11,13.47-.27,20.2-.41,3.46-.07,6.68.62,9.37,3l1.22,1.46c.11.16.22.33.34.49.2.34.41.68.61,1,.3.88.6,1.76.89,2.64,0,.68.09,1.35.13,2S185.91,53.52,185.92,54.21Zm-24.45-.84a2.72,2.72,0,0,0-2.76,2.92,2.93,2.93,0,0,0,3.21,3.28c2-.07,2.81-1.3,3-3.06S163.62,53.38,161.47,53.37ZM175,56.48a3,3,0,0,0-3.22-3.1,2.64,2.64,0,0,0-2.95,2.95c0,2,.9,3.22,3,3.23S174.86,58.43,175,56.48Z"/><path class="cls-7" d="M252.48,91.62l2.85-3c19.71-.13,39.42-.46,59.13-.32,8.86.06,7-.79,7.74,7.7.19,2.26,0,4.55,0,6.82l-1,.07-9.85.49c-.37-.38-.73-.76-1.1-1.13-1.14-3.14-3.53-2.87-6.05-2.22-.76-1.61-1.2-3.53-2.36-4.74a10.56,10.56,0,0,0-4.66-2.41,3.23,3.23,0,0,0-2.77,1c-1.91,2.43-3,2.79-5.63,1-1.63-1.08-3.06-.61-4.42.33S281.82,97,282.11,99c.16,1.17-.82,2.5-1.28,3.75-3.53,0-7.07-.08-10.59,0-7.79.25-15.57.6-23.36.91l.56-6,4.16-5Z"/><path class="cls-3" d="M153.6,156.57v16.21l1.2.23,1.6-3.87a28.62,28.62,0,0,1,1.5-3c.46-.71,1.24-1.84,1.76-1.77,2.21.27,4.07,0,5.3-2.25l.75.35c-.34,3.59-.67,7.17-1,10.76q-2.7,6.24-5.39,12.49a5.44,5.44,0,0,0-1,1.58,16,16,0,0,1-4.79,8.61,9.29,9.29,0,0,0-1.35,2.3l-.08.15-.89,1-.88,1.1c-2.8,2.74-3.29,6.46-4.24,10l-1.87.55a.4.4,0,0,0-.35-.08l-1.24-.59-8.58-2.89c-.17-.27-.34-.54-.52-.81,3.81-11.37,7.6-22.75,11.46-34.11a63.46,63.46,0,0,1,3.7-9.34C150,160.76,151.94,158.75,153.6,156.57Z"/><path class="cls-8" d="M182.69,44.48c-2.69-2.37-5.91-3.06-9.37-3-6.73.14-13.47.3-20.2.41-1.33,0-2.67-.14-4-.23.78-.21,1.61-.72,2.33-.6,2.9.49,4-1.13,4.81-3.52a51.07,51.07,0,0,1,12.22-19.49,17.78,17.78,0,0,1,2-1.53c2.56.67,5.11,1.79,7.69,1.88,3.6.13,7.23-.54,10.84-.82a25.8,25.8,0,0,1,2.78.07l-3.09,2.93-3.86,1.28-1.17.91h0c-1.38.65-1.36,1.33-.05,2l3.61,2,.92,2.37,1.1-.75,3.52-3.09.93-1.65.55-.9,1.06-1c1.47-.08,3-.21,3.07,1.9.83,1.9,2.29.44,3.44.64a30.07,30.07,0,0,1,1.39,3.58,5.1,5.1,0,0,1-.32,2c-1.15.12-2.3.28-3.45.35-2.57.16-5.15.27-7.73.39-.59.53-1.58,1-1.69,1.59a23.28,23.28,0,0,0-.06,4.18l-.48.52C185.84,38.24,184.12,41.23,182.69,44.48Zm3-10.62a12.55,12.55,0,0,0-2.28-1.75,23.66,23.66,0,0,0-3.26-.86l-.68,4.65c.37,0,1,.22,1.07.07a2.28,2.28,0,0,1,3.34-.9C184.21,35.2,184.93,34.42,185.73,33.86Z"/><path class="cls-2" d="M172.36,73l2,.78,1.21.47,2.86,1,3.6,1.93a14.37,14.37,0,0,0,1.64,3.08,36.36,36.36,0,0,0,3.65,3.22c0,.53,0,1.06,0,1.59a4.64,4.64,0,0,0-.33,1.37c.25,3.55.54,7.1.82,10.66l-5.21,5.54,2.61,1.22-3.05.19-4.07-.16-1.41-.19c-.34-.55-.56-1.27-1.05-1.61-8.58-6-14.46-14.21-18.67-23.7-1-2.26-2-4.52-3.07-6.78l13.64-.2,2.28.67,2,.67Z"/><path class="cls-9" d="M413.33,60l-1.17,1.45a6,6,0,0,0-1.5-.92c-2.53-.56-3-2.27-2.83-4.54a35.81,35.81,0,0,0,0-6.3c-.59-5.15-1.86-8-6.12-8l-1.37-.86-1-.29-1-.3a3.11,3.11,0,0,0-4.55.71l-1.67,1.61L391.24,44a80.46,80.46,0,0,0-1.44,9.19c-.18,3.36-.44,6.33-4.43,7.19-.15,1.07-.23,2.14-.45,3.2-.44,2.21-.92,2.34-2.71.86-.31-.26-.63-.5-.95-.74L380,62.15l-2.84-5.37c-.21-.91-.43-1.83-.64-2.73l-.06-1.32.06-5.09.24-1.07.24-2L379.06,40l1.55-2.07L387,32.68c4.65-1.76,9.4-2.6,14.28-1.14,10.61,3.17,16.29,13,13.83,23.74-.1.41-.18.82-.26,1.23l0-.06c-.52,1.21-1,2.42-1.57,3.62Z"/><path class="cls-9" d="M149.27,59.32l-.36,9.3-.12.52-.14,2.09-1.38,1c-3.14,2.14-6.73,2.12-10.24,1.77-5.28-.53-9.78.51-13.12,5a5.56,5.56,0,0,1-3,1.89L123,74.58a30.13,30.13,0,0,1-4.44-2.66c-3.44-3-3.42-14.55.19-17.35a10.48,10.48,0,0,1,5.55-1.87c5.05-.3,10.12-.18,15.18-.23,1.64.17,3.41,0,4.89.62S146.78,55,148,55.94C148.38,57.06,148.83,58.19,149.27,59.32Zm-5.94,4.26-.08-1.1c-.95-.53-1.87-1.4-2.88-1.52a1.82,1.82,0,0,0-2.06,2.42,3.48,3.48,0,0,0,2.41,2.12C141.56,65.54,142.46,64.27,143.33,63.58Zm-9.77-3.85c-1.16,1.66-2.36,2.62-2.29,3.47a3.43,3.43,0,0,0,2.2,2.34,1.93,1.93,0,0,0,2.41-2.34C135.72,62.22,134.71,61.37,133.56,59.73ZM129,63.94l.06-1.16c-.88-.64-1.82-1.85-2.61-1.76s-2.29,1.36-2.3,2.14a3.26,3.26,0,0,0,2.11,2.37C127,65.68,128.08,64.52,129,63.94Z"/><path class="cls-6" d="M381.14,29c-1.75-1.63-3.56-3.21-5.25-4.9a6.48,6.48,0,0,0-5.38-2.18c-2.68.19-5.38.1-8.08,0-5.61-.15-8.34-3-8.36-8.51,0-1.77-.08-3.54,0-5.3a7.09,7.09,0,0,1,7.31-6.86q8.59-.06,17.18,0a7,7,0,0,1,7.32,6.59,43.64,43.64,0,0,1,0,7.32,6.8,6.8,0,0,1-4.57,6.14c-1.59.59-1.87,1.33-1.24,2.82s1,3,1.5,4.49ZM363.26,8.77h-1.13c-.59.92-1.74,1.93-1.62,2.75S362,13.15,362.74,14c.78-.82,2.06-1.57,2.18-2.47S363.86,9.68,363.26,8.77Zm9.6,2.48c-1.7-1-2.75-2.09-3.59-1.95s-1.55,1.49-2.32,2.31c.85.78,1.67,2.11,2.56,2.16S371.27,12.52,372.86,11.25Zm4.08-2.42-1.06-.09c-.63.9-1.82,1.86-1.74,2.68s1.37,1.68,2.12,2.51c.77-.83,2-1.57,2.18-2.53C378.59,10.69,377.48,9.7,376.94,8.83Z"/><path class="cls-10" d="M321.19,102.85l1-.07,10.93-.09,4.16,1.7a2,2,0,0,0,.19.42l1,.55,1,.06c1.2-.3,2.59-1.14,3.54-.79,2.25.82,3.51.17,4.44-1.78,4.12,0,8.24,0,12.37-.07,1.7,0,2.45.66,2.43,2.39,0,4,0,7.91,0,11.86,0,1.73-.75,2.41-2.44,2.39-3.37,0-6.73,0-10.1.06-.26-.84-.53-1.67-.8-2.51l-.8-1.07-1.54-1.56L344.05,113l-19.14,0-2.61,1.32-2.1,2.52-.71,1.18a1.46,1.46,0,0,1-.16.41h-6.44c.33-2,.58-3.53.83-5.08a34.06,34.06,0,0,0,5.54-.11c.91-.16,2.34-1.22,2.37-1.91A83.39,83.39,0,0,0,321.19,102.85Z"/><path class="cls-6" d="M349,117c.27.84.54,1.67.8,2.51-.06,2.35-.11,4.71-.17,7.06-.15.52-.29,1-.43,1.55a1,1,0,0,1-.13.4l-.39.6a.87.87,0,0,1-.1.42c-2.73,2.52-6,3-9.57,2.67-1.58-.13-3.19.11-4.77-.05-3.67-.4-5.67,1.77-7.37,4.52a1.79,1.79,0,0,0-.28.27l-.75.24-1.6,0c.06-.36.13-.72.19-1.08a.21.21,0,0,0,.08-.28l0-.12.69-1.67A9,9,0,0,0,324,132.3c-1-.86-2.08-1.57-3.13-2.34l-1-1.41L319.2,120c.05-.52.09-1,.13-1.57a1.46,1.46,0,0,0,.16-.41l.71-1.18,2.1-2.52,2.61-1.32h19.14l2.61,1.32,1.54,1.56Zm-13.4,3.2-1.05,0c-.59.85-1.53,1.63-1.7,2.56a1.82,1.82,0,0,0,2.31,2.17c.8-.16,2-1.27,2-1.94C337.13,122,336.16,121.11,335.6,120.17Zm-6.59,0-1,0c-.62.92-1.72,1.84-1.71,2.76,0,.7,1.39,1.93,2.16,1.93a2.92,2.92,0,0,0,2.06-2C330.61,122,329.56,121.08,329,120.21Zm12.24-.62c-1,1.52-2.15,2.54-2,3.22.23.87,1.52,1.48,2.34,2.2.66-.78,1.82-1.55,1.83-2.34S342.34,121,341.25,119.59Z"/><path class="cls-3" d="M127.72,22.86l.23.51a19.66,19.66,0,0,1-.13,15.8.74.74,0,0,0-.11.24c-.5.52-1,1-1.5,1.56-.9,1.1-1.82,1.25-2.84.19l-1.93-1.84c-.27-.74-.55-1.49-.83-2.23L120,35.91a28.72,28.72,0,0,0,.16-3.46c-.14-1.85-.45-3.68-.68-5.52l-.25-.81-.5-.79c-1.36-1.74-3.17-2.83-5.26-1.93-1.17.51-1.93,2-2.88,3-.28.38-.75.73-.82,1.14-.61,3.38.56,6.25,2.64,8.84l0,.7-3.59,3.4c-1.39-.12-2.29.33-2.21,1.91l-2.39.69-.49-.34-.87-.84c-.26-.33-.52-.66-.77-1-1.07-2.37-2.14-4.75-3.2-7.12,0-.33-.07-.65-.1-1,0-1.14,0-2.29,0-3.43,0-.48.11-.95.16-1.43s.37-1.07.55-1.6c.31-.82.61-1.65.91-2.47.23-.36.45-.72.68-1.07a3.78,3.78,0,0,0,.26-.43l1.25-1.62.08-.08.9-.91.11-.13,1.57-1.27.45-.24,5-2.29,5.11-.22L122,17.49l.85.48,2.35,1.87,1.37,1.46Z"/><path class="cls-11" d="M78,102.25v1l.09.83c.73,6.17.68,6.21-5.51,6.23-7,0-14,.08-21,.13a1.06,1.06,0,0,1-.09-.25c-.31-1.39-.44-3.92-1-4-2.88-.45-5.94-1.29-8.71.59l-3.79-.31-.75-.73,0-4.54c3.88,0,7.76,0,11.64,0,1.61,0,2.54-.47,2.54-2.3s-1-2.28-2.57-2.26c-3.88,0-7.76,0-11.64,0,0-1.35,0-2.7,0-4l3.09.57c-1,.34-3-.38-2.16,1.79.2.47,2.09.25,3.19.36l-.13-2.08a14.39,14.39,0,0,1,2.6-.61c1.84-.1,3.69-.07,5.54,0,1.32,0,2.14-.43,2-1.87-.16-2.11,1.16-2.22,2.74-2.21,8,0,15.94,0,23.92,0l0,12.8C78.08,101.68,78.05,102,78,102.25ZM53.93,95.36l-.2,0-.08.19v1.67l.79.22c6.64.05,13.29.12,19.93.08.61,0,1.22-.75,1.82-1.15-.61-.4-1.22-1.14-1.83-1.15C67.56,95.22,60.75,95.3,53.93,95.36ZM64.59,109c3.19,0,6.39.11,9.57-.07.8-.05,1.54-1,2.31-1.54-.74-.58-1.47-1.64-2.22-1.65q-9.45-.21-18.9,0a2.9,2.9,0,0,0-2.19,1.62c-.34,1.75,1.17,1.64,2.35,1.64C58.54,109,61.56,109,64.59,109Zm12-7.24,0-1a11.33,11.33,0,0,0-2.25-.49c-6.33,0-12.65,0-19,0a6.42,6.42,0,0,0-2.09.87c.71.37,1.42,1.06,2.14,1.06,6.32.09,12.65.07,19,0A10.44,10.44,0,0,0,76.58,101.73ZM53.75,91.86c1.7,1.24,20.09,1.26,21.88,0C73.93,90.65,55.52,90.63,53.75,91.86Z"/><path class="cls-12" d="M153.74,112q0,4-.08,7.91c-2.76-.86-5.6-1.52-8.32-.22a40.43,40.43,0,0,0-5.17,3.45c-6.64-.14-13.28-.26-19.91-.43-3.28-.09-6.55-.23-9.81-.51-.62,0-1.18-.86-1.76-1.32q.07-4.29.16-8.58c2.54-.2,5.09-.59,7.64-.59,12.34,0,24.67.1,37,.16A.21.21,0,0,0,153.74,112Z"/><path class="cls-13" d="M250.19,25.32l.87-1.46,2.34-2.63.61-.49,1.43-1,.07,0,2.28-1.27,1.25-.34,6.61-.73,1.24.11,1.81.64.91.2,2.63,1.37,3.61,3.09,1,1.32.09.16,1.18,2.28.4.77.3,1,.17,1v7.18l-.16,1-2.32,4.13-5.87-2.43-2.53-2.09a24.16,24.16,0,0,0,.65-3.13,33,33,0,0,0,0-3.44l.24-2a4.87,4.87,0,0,0-3.41-5.41A4.47,4.47,0,0,0,259.91,26c-.47,1.42-.24,3.08-.33,4.63a21.79,21.79,0,0,0,.11,2.81c.21,1.28.58,2.54.89,3.8l-2.48,1.92c-2.24.71-5.09.36-5.93,3.47l-3.87-7.74,0-4.05Z"/><path class="cls-14" d="M317.33,51.38a4.14,4.14,0,0,0,1.47,5.21,24.11,24.11,0,0,1,2.5,2.64c-2,5.82-2.35,6.13-8.64,6.06S300.24,65,294,64.82c-2.33-.11-3.15-1.68-3.42-3.66s.45-4,2.45-4.8c1.58-.66,2.55-1.45,2.66-3.22a2,2,0,0,1,.75-1.28,66.68,66.68,0,0,1,8-5.66,4.72,4.72,0,0,1,6.31,1.62C312.41,50.38,314.83,50.79,317.33,51.38Z"/><path class="cls-14" d="M35.88,154.51a5.47,5.47,0,0,1-.9.78c-.8.43-2.38.93-2.34,1.15A11.13,11.13,0,0,0,34,159.76c.66,1.18,1.48,2.26,2.23,3.38-1.25,4.56-2.45,5.47-7.29,5.47l-9.84,0c-2.36,0-4.72,0-7.08-.1-2.68-.12-4.37-1.45-4.71-3.72a4.51,4.51,0,0,1,2.8-5.33c.38-.16,1.05-.36,1.06-.58.37-4.31,4.9-4.65,7-7.36,1.77-2.3,6.08-2.44,8-.16,2.5,3,5.33,4,9,3.13A2.41,2.41,0,0,1,35.88,154.51Z"/><path class="cls-7" d="M153.86,138.66,153.62,154c-8.05,0-16.11,0-24.16-.1-1.24,0-2.49-.25-3.73-.38l1.43-2.65.86-1.3,1.45-3.63.25-1.7c.06-.77.11-1.54.17-2.3l-.81-4.31.14-.59,12.48-.44C145.32,139.81,149.44,140.07,153.86,138.66Z"/><path class="cls-15" d="M280.83,102.79c.46-1.25,1.44-2.58,1.28-3.75-.29-2.09,1-2.91,2.25-3.8s2.79-1.41,4.42-.33c2.67,1.75,3.72,1.39,5.63-1a3.23,3.23,0,0,1,2.77-1,10.56,10.56,0,0,1,4.66,2.41c1.16,1.21,1.6,3.13,2.36,4.74l-3.34,4.5c-.48-.33-1-.66-1.45-1a9.31,9.31,0,0,0-13.14,4.19c-1.8,1.62-1.66,3.66-.84,5.55a48.53,48.53,0,0,0,3.19,5.41L285,123c-.32-.09-.69-.35-.95-.26-3.37,1.08-5.32-.7-6.88-3.33.36-1,.47-2.19,1.12-2.89a2.68,2.68,0,0,0,.47-3.61c-.38-.6-.62-1.46-1.17-1.77-1.71-.95-2-2.19-1.62-4,.42-2.14,1-3.73,3.64-3.51C280,103.61,280.43,103.07,280.83,102.79Z"/><path class="cls-12" d="M96.14,20.79a30.54,30.54,0,0,0-3.68-3.27A12.19,12.19,0,0,0,88,15.71a40,40,0,0,0-5.8-.08A8.4,8.4,0,0,1,80,15.39c-3.21-1-4.31-3.64-4-9.6.16-3.24,1.61-5.4,4.7-5.59a129.42,129.42,0,0,1,14.87,0c2.49.14,4.11,2,4.32,4.55a23.63,23.63,0,0,1-.07,6.29,5.76,5.76,0,0,1-2.34,3.61c-1.92,1.09-2.36,2.11-1.29,4a6.41,6.41,0,0,1,.48,1.68ZM95.27,8C94.11,7,93.41,6,92.86,6.11A2.67,2.67,0,0,0,91,7.77c-.12.48.9,1.75,1.46,1.78C93.19,9.59,94,8.75,95.27,8Zm-5.09-.2c-1.3-.82-2.07-1.68-2.62-1.56-.72.16-1.28,1.09-1.9,1.68.59.61,1.17,1.67,1.77,1.69S88.87,8.69,90.18,7.77ZM85.05,8c-1.06-.89-1.67-1.8-2.3-1.81s-1.34.84-2,1.31c.55.71,1,1.77,1.68,2C82.91,9.72,83.8,8.79,85.05,8Z"/><path class="cls-16" d="M28.56,62.25c.12,4,.23,8.07.38,12.11,0,1.5-.63,2.1-2.12,2.09-8.26,0-16.52.07-24.77,0-.69,0-1.95-1-2-1.54C-.07,70.76,0,66.63.1,62.51c0-.27.5-.53.77-.79,4,2,8,4,11.87,6.15a3.78,3.78,0,0,0,4,.07C20.65,66,24.61,64.14,28.56,62.25Z"/><path class="cls-17" d="M128,149.55l-.86,1.3-.62,0c-2.22-2-2.5-4.6-2.28-7.41a13.3,13.3,0,0,0-.48-3.46c-.44-2.26-1.65-3.79-4.07-4.1l-.83-.36-1-.4c-3.72-.27-5.19.58-5.94,4.18a77,77,0,0,0-.9,8.49c-2.69.75-2.78,3.11-3,6.08-1.44-1.45-2.38-2.32-3.23-3.27-2.64-3-2.69-6.69-2.86-10.37.06-.42.12-.83.17-1.25.63-1.43,1.25-2.87,1.88-4.3l.54-.68.54-.79,1.77-1.78.78-.49.78-.52,5.79-2h3.28l4.78,1.48.81.52,3.19,2.63a.76.76,0,0,1,.32.27l.5.72.57.74c.49.94,1,1.89,1.46,2.84l.81,4.3c-.06.77-.11,1.54-.17,2.31-.08.57-.17,1.13-.25,1.7Z"/><path class="cls-18" d="M271.18,177.69c-1.88-.06-3.75-.18-5.63-.18a11.71,11.71,0,0,0-3.71.28c-1.65.56-2.32,0-2.74-1.49s-1-3.05-1.45-4.57q.15-10.3.31-20.61c0-.72.07-1.44.11-2.16.86,4.16.86,4.13,5.37,4.17,2.59,0,5.18.18,7.77.27Z"/><path class="cls-19" d="M285,123l3.6-4.28c.78.3,1.55.64,2.35.88,5.65,1.65,10.66-1,11.77-6.14.17-1.2.34-2.41.5-3.61l-1-3.08c-.47-.75-.94-1.5-1.42-2.24l3.34-4.5c2.52-.65,4.91-.92,6.05,2.22,0,1.07,0,2.14,0,3.21l-.48.46c-2,.93-2,3-.15,5l1.93,1.11c1.41,3.79.37,5.76-3.45,6.61-.32.07-.57.49-.85.75-.89,1.48-1.87,2.81-1,4.82.24.57-1.07,2.08-2,2.77-1.34,1-2.9,1.67-4.61.43-2.63-1.9-3.61-1.75-5.42.81-1.52,2.15-3.58,1.19-5.28.7-1-.3-1.8-1.65-2.47-2.66A22.78,22.78,0,0,1,285,123Z"/><path class="cls-17" d="M108.85,112.34q-.09,4.29-.16,8.58c-3.17,0-6.19,0-9.27,1.62-2,1-4.93.39-7.44.5l-.79-1.72H87.83l2.63-1.88,2.23-1.81-2.27-.15h-.93c.9-3.59-.09-5.19-3.56-4.6l-2.63-2.17c1.57-.1,3.15-.24,4.72-.31,4.1-.18,5.72-2,5.29-6-.35-3.2.3-4.62,2.73-5.53.3,1.57.55,3.11.89,4.63,2,9.08,3.24,8.59,9.66,8.7C107.34,112.19,108.09,112.29,108.85,112.34Z"/><path class="cls-20" d="M107.76,103.88c-3.62-2.42-2.88-6.16-2.25-9.36,1.41-7.08,7.45-10.18,14.39-8.72a11.33,11.33,0,0,1,8.36,14.77,18.71,18.71,0,0,1-1.87,3.3L120.05,101c0-.83,0-1.65,0-2.48l.56-1.07.22-.89-.17-.69c.55-2.18.12-4-1.87-5.29a3.17,3.17,0,0,0-4.09.08c-1.39,1.23-2.18,2.8-1.28,4.73l-.29,1-.09,0,.07.06c.35,1.62.71,3.25,1.06,4.88Z"/><path class="cls-21" d="M93.58,80.2c-4.55,0-9.11-.06-13.66,0-1.71,0-2.44-.44-2.41-2.26q.12-9,0-18c0-1.63.51-2.23,2.18-2.22q14.06.08,28.09,0c1.69,0,2.17.65,2.15,2.26q-.11,9,0,18c0,1.64-.55,2.23-2.19,2.2C103,80.15,98.31,80.2,93.58,80.2Zm13.78-19.45-.72-.9-8.47.09c-5.42-.06-10.85-.15-16.27-.14-.48,0-1,.65-1.42,1v1.9l.06,4.71v2.86c-.09,1.77-.14,3.53-.27,5.3s.63,2.38,2.36,2.37q11.24-.09,22.48,0c2.12,0,2.62-1.06,2.44-2.86-.15-1.42-.3-2.84-.44-4.26Z"/><path class="cls-15" d="M387,32.68l-6.38,5.24c-.83-.47-1.64-1.31-2.49-1.35-3.54-.15-7.09-.06-10.63-.06h-6.2c-.32,2.6.44,3.57,2.85,3.5,5-.15,10,0,14.93,0L377,44.58a45.67,45.67,0,0,0-5.86-1c-3.66-.15-7.34,0-11.23,0,.25,1.49.41,2.46.58,3.44l-3.8-.16c0-.59.05-1.18.07-1.77l.87-.88-.48-.33c-.15.39-.29.78-.43,1.17l-1,1.64c-.31-.54-.87-1.07-.89-1.61-.08-3.53-.14-7.06,0-10.58,0-.7,1.09-1.92,1.68-1.93C366.66,32.5,376.82,32.61,387,32.68Zm-30.75,4.75-.43,1.19.29.08.18-1.23.65-.42-.28-.27Z"/><path class="cls-15" d="M51.45,113.39c0,1.35,0,2.69,0,4-8.71,0-17.42-.05-26.13,0a8.45,8.45,0,0,0-2.66,1l-3.4.12L17.38,117c-.08-3-.15-6-.23-9,0-1.7.94-2.13,2.43-2.11,5.79,0,11.59.06,17.38.08l.54,4.33c-4,0-7.92-.06-11.87.1-.81,0-2.14.79-2.27,1.42-.38,1.8,1.16,1.64,2.33,1.64Zm-32.24,1.68.12,1.24,3.3-.35c-.12-.41-.24-1.2-.34-1.2C21.26,114.79,20.23,115,19.21,115.07ZM21,106.88l-1.7,1.42a5.09,5.09,0,0,0,1.77.89c.5,0,1-.52,1.55-.82Z"/><path class="cls-3" d="M396.1,90.83a11.58,11.58,0,1,1,11.58,11.81A11.6,11.6,0,0,1,396.1,90.83Zm16.29-3.77a2.92,2.92,0,0,1-.32-.38c-1.6-2.62-3.79-3.46-6.24-2.37-2,.89-2.38,2.86-1.54,5.9a4.53,4.53,0,0,1-.68,2.79c-.69,1.39-1.61,2.67-2.67,4.39l3.49.49-.89,2.24c3.49,2.18,7.43,1.78,10.7-1,3.51-3,4.9-8,3.2-11.87a17.66,17.66,0,0,0-2.09-3l-2.42,2.33Z"/><path class="cls-12" d="M70.4,59.38c-.53.84-1.06,1.68-1.58,2.52a37.51,37.51,0,0,1-3.2-2.18,12.61,12.61,0,0,1-1.68-2c.09-1.51.19-3,.28-4.52-.51-.93-.81-2.25-1.6-2.69a3.08,3.08,0,0,0-2.92.36c-.75.79-.83,2.2-1.2,3.35.15.68.29,1.36.44,2l-.1.9-.72,1.09,0,0-1,2.28L54.84,63C51,59.5,50.1,54,52.7,50a10,10,0,0,1,12.87-3.73c4.63,2.12,6.64,7.06,5.12,12.59C70.6,59,70.5,59.2,70.4,59.38Z"/><path class="cls-22" d="M379.24,122.86c-2.64-2-3.67-6.17-2.35-10.07a10.13,10.13,0,0,1,8.57-7.26,10,10,0,0,1,10.26,4.55,10.43,10.43,0,0,1,.56,10.8,7.13,7.13,0,0,1-1.29,1.47,15.33,15.33,0,0,0-3-2c-1.94-.71-3-1.63-2.05-3.82a4.75,4.75,0,0,0,.15-1.48c-.13-1.65.28-3.72-.57-4.84-.71-1-3.5-1.57-4.25-1-1.07.88-1.14,3-1.58,4.6a4.39,4.39,0,0,0,0,1.25c1,3.87,1,3.81-2.57,5.65C380.38,121.17,379.88,122.14,379.24,122.86Z"/><path class="cls-16" d="M277.38,79.48c-3.92-2.52-5.24-6.79-3.57-11.48,1.5-4.2,5.87-6.59,10.85-5.94a9.41,9.41,0,0,1,7.91,8.34c.23,3.28-.18,6.4-3.33,8.38L286,76.38,285.63,72c2-1.19.71-2.14-.23-3.12-.22-.66-.4-1.85-.68-1.88a6.57,6.57,0,0,0-3.46.32c-1.06.53-1.95,1.64-.94,3.06l-.48,5.79Z"/><path class="cls-15" d="M318.24,170c4.72,0,5.09.27,5,4.85-.11,5.72-.36,11.43-.46,17.14,0,1.75-.77,2.39-2.46,2.37q-8.71-.06-17.43,0c-2,0-2.88-.77-2.85-2.87.08-6.4,0-12.8,0-19.2,0-2.84,1.26-3.43,4-2l-.15.2c-1.17.11-3-.3-2.78,1.51.22,2,1.88.7,2.94.68a2.65,2.65,0,0,0,.49-.09l13.6,0a3.26,3.26,0,0,0,1.23.08,12.2,12.2,0,0,0,1.77-1,12.05,12.05,0,0,0-1.59-1.12,3.18,3.18,0,0,0-1.24,0Zm0,10.25,0-5.09c-.58-.44-1.15-1.24-1.75-1.27-2.75-.15-5.52-.14-8.27-.08-2.48.05-4.95.24-7.64.38v15.59l.38,2.89c7.22,1.32,15.66,1.2,17.48-.73H302.8l1.32-2.24.85,0c2.58.05,5.16.15,7.74.16,6,0,6,0,5.53-6.11C318.25,182.54,318.25,181.39,318.26,180.23Z"/><path class="cls-23" d="M40.42,93.21l-3.09-.57c-1.44-7.23-1.11-7.66,6-7.66q16.24,0,32.5,0c2.72,0,3.25.88,2.33,3.6-8,0-16,0-23.92,0-1.58,0-2.9.1-2.74,2.21.11,1.44-.71,1.9-2,1.87-1.85,0-3.7-.07-5.54,0a14.39,14.39,0,0,0-2.6.61Zm-.64-4.59L38,90.19c.6.3,1.21.85,1.79.82a5.89,5.89,0,0,0,2-.89Z"/><path class="cls-15" d="M271.21,153.4c-2.59-.09-5.18-.24-7.77-.27-4.51,0-4.51,0-5.37-4.17,0,.72-.1,1.44-.11,2.16q-.16,10.31-.31,20.61c-.48-1.15-1-2.28-1.42-3.46a23.61,23.61,0,0,1-.59-2.65c.1-.55.21-1.1.31-1.65q0-9.14-.07-18.29c0-.19,0-.39,0-.59,2.24.07,4.47.23,6.7.16a10.16,10.16,0,0,0,2.72-.88,6.39,6.39,0,0,0,1.66.48c7,0,14.09.06,21.13,0,.74,0,1.46-.84,2.19-1.28l3.31,0,2.11.72.06,4.24L294,147.6c.09-1.47-.73-1.8-2-1.8s-2.12.35-2,1.83a17.06,17.06,0,0,1-3.11.6c-8.27.05-16.53,0-24.8,0-1.37,0-2.5,0-2.52,1.93,0,1.68.67,2.15,2.26,2.19,3.24.09,6.48.37,9.73.57Z"/><path class="cls-24" d="M306,156.25a9.21,9.21,0,0,1-2.41-10.85,9,9,0,0,1,8.36-6,9.42,9.42,0,0,1,9.26,5,9.31,9.31,0,0,1-1.23,11c-.58-.61-1.16-1.2-1.74-1.8l-1.45-.17-1-1.15c.44-1.57,1.24-3.14,1.23-4.71a3.75,3.75,0,0,0-4.49-3.6,3.8,3.8,0,0,0-2.9,4.78,14,14,0,0,0,1.43,2.88l-.59,1a.25.25,0,0,0-.25.12l-1,.65-1.93.15Z"/><path class="cls-2" d="M140.17,123.18a40.43,40.43,0,0,1,5.17-3.45c2.72-1.3,5.56-.64,8.32.22,3.59,2.38,5.91,5.57,5.46,10-.18,1.8-1.27,3.51-1.94,5.26l-5.23-4.8a25.92,25.92,0,0,0,.75-4c.08-2.28-1.37-3.32-3.48-3.53A3,3,0,0,0,145.7,126a22.34,22.34,0,0,0,.65,4.68l-5.17,4.12a7.67,7.67,0,0,1-2-8.83C139.59,125.08,139.85,124.12,140.17,123.18Z"/><path class="cls-11" d="M104.49,178.35c-5.94,0-11.82,0-17.71,0-1.66,0-2.44-.6-2.41-2.39.07-5.31,0-10.63,0-15.94,0-1.69.53-2.42,2.34-2.39,5.22.1,10.45.05,15.68,0,1.45,0,2.54.36,2.54,2.06q-.06,9-.15,18C104.78,177.93,104.58,178.15,104.49,178.35Zm-6.38-15.13a7.1,7.1,0,0,0-7.21-.71c-2.68,1.49-4.29,4.46-3.7,7.08.36,1.54,1,3,1.43,4.52l-2.9,3.51c6.23,0,11.76,0,17.28-.08.42,0,1.13-1.18,1.16-1.83.13-2.87.06-5.74.06-8.6v-7.3l-.76-.11-3.85,3.56Z"/><path class="cls-22" d="M347,163.57a8.2,8.2,0,1,1-16.4.14,8.2,8.2,0,1,1,16.4-.14Zm-8.92,5.27-1.67,1c2.39,1.83,4.14.54,6.26-.43l-2.74-.58c-.42-2,.66-4.48-1.23-6.12l-1,.12Q337.94,165.84,338.12,168.84Zm6.06-1.05c2.59-3.07,2.36-6.67-.71-8.41C341.59,162.31,342.05,165.08,344.18,167.79Z"/><path class="cls-1" d="M271.52,152.94c-3.25-.2-6.49-.48-9.73-.57-1.59,0-2.28-.51-2.26-2.19,0-1.89,1.15-1.93,2.52-1.93,8.27,0,16.53,0,24.8,0a17.06,17.06,0,0,0,3.11-.6l4,0,1.81.88c0,.59,0,1.18.08,1.76.22,2.17-.67,3-2.9,2.93C285.81,153,278.66,153,271.52,152.94Z"/><path class="cls-11" d="M101.92,140.25c.17,3.68.22,7.39,2.86,10.37.85.95,1.79,1.82,3.23,3.27.21-3,.3-5.33,3-6.08,1.44-.19,3-.16,3.45-2.05l3.7.05,3.25,2,4.31,4.52c.17-.3.5-.88.84-1.46l.61,0-1.43,2.65c-1.25.67-2.49,1.39-3.76,2-9.21,4.49-20.43-2.4-20.59-12.66A12.13,12.13,0,0,1,101.92,140.25Z"/><path class="cls-11" d="M438,115.38c.15,2.89.39,5.78.39,8.66,0,.43-1.15,1.22-1.77,1.24q-7.82.15-15.62,0c-.63,0-1.74-.71-1.81-1.19-.34-2.66-.46-5.34-.56-8,0-.34.55-.7.85-1,2.42,1.25,4.78,2.67,7.3,3.67a6,6,0,0,0,4,.07A79.13,79.13,0,0,0,438,115.38Z"/><path class="cls-14" d="M152.88,88.69V92q0,3.08-.08,6.16l-.06,0h-8.81c-1.33,0-2.36.33-2.28,2l-1.48.12-1-.1q0-10.34.08-20.68l12,0C152.83,82.41,152.84,85.55,152.88,88.69Zm-10,5c1.68,2.86,5.42,2.88,7.51,0,2.41-2.52,2.35-5.32-.16-7.65-2-1.87-6.26-1.65-8,.4S140.8,92.31,142.9,93.67Z"/><path class="cls-25" d="M309,44a9.52,9.52,0,0,1-9.79-9.44c.06-5.23,4.61-9.81,9.65-9.73a9.76,9.76,0,0,1,9.44,9.59A9.27,9.27,0,0,1,309,44Zm3.58-13.08c-.42-.41-.79-1.09-1.28-1.19-1.3-.26-3.07-.83-3.88-.23a4.38,4.38,0,0,0-1.44,3.8,2.94,2.94,0,0,1-.84,3.48c-1.28,1.33-1.75,2.79.52,3.74.57.65,1,1.69,1.73,1.87a7.56,7.56,0,0,0,3.69,0,7.86,7.86,0,0,0,5.82-6.28,6.66,6.66,0,0,0-2.18-6.76Z"/><path class="cls-19" d="M136.55,167.58c3.43-.64,4.75.72,4.2,4a5.59,5.59,0,0,0,.59,3.22c1,2,.58,3.34-1.25,4.66a6.17,6.17,0,0,0-2.07,3c-.64,2-1.81,2.78-3.94,2.18a4.17,4.17,0,0,0-2.6-.12c-4.14,1.88-4.9,1.6-6.44-2.81l2.41-2.6c1.8,1.09,3.59,1.7,5.59.36,3.08-2.06,3.68-5.53,1.44-8.88Z"/><path class="cls-15" d="M127.45,179.1,125,181.7c-1.66,0-4.09.27-4.11-1.79,0-2.61.26-5-1.28-7.37-.22-.33.75-2,1.46-2.25,1.65-.58,2.12-1.65,2.34-3.18.33-2.27,1.74-2.91,4-2.25a4.1,4.1,0,0,0,2.94-.14c2.76-1.72,3.81-1.52,5.21,1.39a15.12,15.12,0,0,0,.93,1.47l-2.07,3c-3.52-2.18-6.09-1.9-8,1.27C125,174.35,125.77,176.86,127.45,179.1Z"/><path class="cls-16" d="M270.66,39.17l5.87,2.43.09.6c-3.29,4.28-7.77,6.23-13,6.62l-2.73-.23-2-.56-2.23-.75-1.11-1a.57.57,0,0,0-.3-.2l-.72-.54,0,0-2.33-3c.84-3.11,3.69-2.76,5.93-3.47-.35,1.18-.7,2.36-.92,3.14l6.1,1.14a3.83,3.83,0,0,0,1.48.16c2.37-.6,4.61-2.37,7.27-.68C271.57,41.64,271.11,40.41,270.66,39.17Z"/><path class="cls-4" d="M78.37,130.51c5.44-.71,9,4.58,8.8,8.9a8.85,8.85,0,0,1-9.32,8.38,8.73,8.73,0,0,1-8.61-8.73C69.27,135,72.53,129.75,78.37,130.51Zm-3,14c.62.72,1.16,1.95,1.89,2.07a7,7,0,0,0,7.15-3.19c1.64-2.32,2.14-4.75.69-7.51-1-1.87-1.86-1.84-3.18-.55-.56-.36-1.12-1-1.69-1a8.77,8.77,0,0,0-4,.5c-.68.34-1.38,2.21-1,2.7,1.18,1.72.46,2.67-.72,3.85C73.09,142.74,73.05,144,75.34,144.5Z"/><path class="cls-11" d="M46.22,42.47c.09,1.58.23,3.17.24,4.75,0,3.85,0,3.91-3.76,4-3.6.11-7.21,0-10.81.15-2.27.07-3.52-.64-3.21-3.17.24-1.93.3-3.89.44-5.84,5.4,3.29,10.83,4.66,16.4.37A2.7,2.7,0,0,1,46.22,42.47Z"/><path class="cls-19" d="M17.38,117l1.87,1.52c-.06.31-.13.61-.19.92,0,.06-.13.15-.12.17a3.31,3.31,0,0,0,.26.27l.49.47,2.44,0,.52-2a8.45,8.45,0,0,1,2.66-1c8.71-.06,17.42,0,26.13,0,.13,4,.13,4-3.89,4H21.37C17.06,121.4,17,121.3,17.38,117Z"/><path class="cls-24" d="M74.51,45.55A8,8,0,0,1,75,36.64a8.33,8.33,0,0,1,8.55-2.9c3.17.82,5.8,3.63,6,6.7.15,2.13.44,4.41-1.69,5.93l-4.51-1.88L84,40.73c1-2.34,0-4.27-2.25-4.6s-3.28,1.07-3,4.4l.94,4Z"/><path class="cls-15" d="M265.65,136.55l5.13-.28.56-.1c6.88.14,13.76.3,20.64.4,4.3.06,4.5.25,3.75,4.66a22.92,22.92,0,0,0-3.45-.55c-9-.08-18-.1-27-.14Z"/><path class="cls-15" d="M337.32,104.39l-4.16-1.7c-.22-1.44-.39-2.88-.68-4.3a9.87,9.87,0,0,0-.85-2.54c-.8-1.53-.43-2.41,1.11-3.21.8-.42,1.25-1.48,1.87-2.23s1.64-2.29,1.92-2.17c2.08.89,3.76-.35,5.61-.61a4.42,4.42,0,0,1,2.36.58,14.79,14.79,0,0,1,3.69,2.24,5.74,5.74,0,0,1,1.27,2.94,17,17,0,0,1,0,3.19c-.32-1-.68-1.93-1-2.92-.21-.75-.1-2-.52-2.18a4.12,4.12,0,0,0-2.53.15,5,5,0,0,0-1.42,1,17.74,17.74,0,0,0-2.69-.52,4.12,4.12,0,0,0-4,6.15,11.51,11.51,0,0,0,2.11,2.33C336.24,100.48,337.44,102.8,337.32,104.39Z"/><path class="cls-26" d="M28.56,62.25c-3.95,1.89-7.91,3.75-11.83,5.69a3.78,3.78,0,0,1-4-.07C8.86,65.69,4.84,63.75.87,61.72c.15-.08.3-.23.45-.23,8.68-.07,17.35-.15,26-.16C27.75,61.33,28.15,61.93,28.56,62.25Z"/><path class="cls-1" d="M265.23,140.54c9,0,18,.06,27,.14a22.92,22.92,0,0,1,3.45.55c0,1,0,2,0,3l-2.11-.72c-.06-.57-.05-1.6-.18-1.62a9.72,9.72,0,0,0-2.9,0c-.16,0-.16,1.05-.23,1.62-.73.44-1.45,1.27-2.19,1.28-7,.09-14.09.06-21.13,0a6.39,6.39,0,0,1-1.66-.48C265.28,143.09,265.26,141.82,265.23,140.54Z"/><path class="cls-27" d="M278.5,227.93l4.34-1.59c1.37,2.86,2.67,5.75,4.16,8.54a2.21,2.21,0,0,0,2.05.52,83.71,83.71,0,0,0,7.77-3.54c.65-.34,1.52-1.68,1.33-2-1.92-3.11-4-6.11-6.09-9.14,0-.32.06-.64.1-1A13.63,13.63,0,0,1,294.4,222c2,3,3.78,6,5.66,9.09-3.44,1.72-6.83,3.54-10.32,5.14-2.57,1.18-5.27,2.08-7.92,3.11-1.31-2.63-2.54-5.32-4-7.88A2.39,2.39,0,0,1,278.5,227.93Z"/><path class="cls-27" d="M294,64.82c6.22.16,12.43.39,18.64.47s6.65-.24,8.64-6.06c.2,1.21.86,2.56.52,3.58a5.39,5.39,0,0,1-5,3.94c-3.53.11-7.07.14-10.59,0-2.27-.09-3,1-3.09,3A7.63,7.63,0,0,0,310.73,78c12.28,0,24.56,0,36.85,0a18.16,18.16,0,0,1,3.15.52,23,23,0,0,1-3.17.44c-11.79,0-23.58,0-35.37,0-7.53,0-11.44-5.23-9.26-12.41a4.91,4.91,0,0,0-.07-1.12c-1.8,0-3.67.07-5.53,0A24,24,0,0,1,294,64.82Z"/><path class="cls-27" d="M144.23,211l1.87-.55.16.16c2.51.63,3,2.23,2.36,4.56-.84,3-1.54,6-2.31,9l-16.64-4.88c.7-3.08,1.32-6.19,2.15-9.24a18.57,18.57,0,0,1,1.72-3.42c.18.27.35.54.52.81-1,3.51-2,7-2.84,10.54-.09.41.91,1.37,1.57,1.61,2.27.84,4.65,1.37,6.91,2.21,1.44.53,2.11,0,2.4-1.25C142.85,217.34,143.53,214.15,144.23,211Z"/><path class="cls-8" d="M349.62,55.19a19.43,19.43,0,0,0-7.57-4.45c-1.49-.44-2.37-3-3.53-4.56a15,15,0,0,0,3.26-1.45c1.93-1.47,3.68-1.6,5.37.09a68.31,68.31,0,0,1,5.31,5.86c.56.73.9,2.44.46,2.93C352.19,54.46,350.76,54.7,349.62,55.19Z"/><path class="cls-8" d="M63.87,161a28.89,28.89,0,0,0-2.13-3.62,4.26,4.26,0,0,0-2.36-1.75c-3.55-.31-5-2.87-6.4-5.52a18.34,18.34,0,0,0,3.28-1.66c1.41-1.09,3-1.36,4.17-.26a50.76,50.76,0,0,1,6.18,6.68,2.31,2.31,0,0,1-1.29,3.7C63.88,159.07,63.87,159.94,63.87,161Z"/><path class="cls-19" d="M51.45,113.39l-25.76,0c-1.17,0-2.71.16-2.33-1.64.13-.63,1.46-1.39,2.27-1.42,3.95-.16,7.91-.09,11.87-.1l14-.07a1.06,1.06,0,0,0,.09.25Z"/><path class="cls-12" d="M141.18,134.83l5.17-4.12.92,2.25c.47,1.2.94,2.4,1.4,3.6l1-.06L151,133c.31-.86.62-1.72.94-2.58l5.23,4.8-3.32,3.43c-4.42,1.41-8.54,1.15-12.16-2.08C141.53,136,141.35,135.41,141.18,134.83Z"/><path class="cls-21" d="M355.9,144.23q0-8.31,0-16.62l6,1.21-.6.78c-3.72.85-4.67,6.12-1.48,8.61.17,1.52.52,2.83,2.55,2.13l3,0c2.21,1.84,2.12,2.51-.49,3.9l-6,0Z"/><path class="cls-21" d="M398.05,70.62l-2.05,0-2.14-.86q-.15-2.93-.29-5.85V61.42l-3.08-.29.22-.57c.19-.33.38-.67.56-1l2.53-3.5,2.39,3.55,3.58-2.89,2.74,4.52h-2.78c0,.79.07,1.47.1,2.16v.82c-.23.88-.44,1.77-.69,2.64C398.78,68.11,398.41,69.36,398.05,70.62Z"/><path class="cls-24" d="M401.67,41.64c4.26.08,5.53,2.89,6.12,8a35.81,35.81,0,0,1,0,6.3c-.15,2.27.3,4,2.83,4.54a6,6,0,0,1,1.5.92L408.8,65.5l-1.17-4.3c-.19-.36-.33-1-.59-1-3.63-.81-3-3.64-3-6.18C404,49.74,404.27,45.41,401.67,41.64Z"/><path class="cls-14" d="M70.55,175.86c-.31-1.88-1.91-1.77-3.23-2.22-.88-.3-2.07-.82-2.3-1.52s.51-1.78,1.09-2.47c1.11-1.31,2-2.52.63-4.15,1.29.09,2.58.26,3.87.23,2,0,6.26,3.79,5.87,5.65a3.13,3.13,0,0,1-2.33,1.94C72.06,173.18,71.17,174.2,70.55,175.86Z"/><path class="cls-14" d="M352.71,70.44c-1.94-.74-1.63-1.81-.66-3.26a36.65,36.65,0,0,0,2.13-4.25c3.54-.86,6.36.13,8.11,3.41.5.93,1.07,2.38.68,3.06s-1.9,1-3,1.23a6,6,0,0,1-2-.21Z"/><path class="cls-26" d="M83.3,110.72l2.63,2.17c-.31,2.85,1.37,5,3.56,4.6h.93c0,.65,0,1.31,0,2l-2.63,1.88h3.36L92,123c-1.79,1.37-3.43,1.38-5.09-.31a15.75,15.75,0,0,0-3.48-2.84c-3-1.63-1.29-4.65-2.15-6.9C81.09,112.56,82.58,111.5,83.3,110.72Z"/><path class="cls-23" d="M54.84,63l2.34-2.49,1-2.28,0,0,3.81,3.24,1.2-3.23a1.5,1.5,0,0,0,.15-.42l.65-.12a13.22,13.22,0,0,0,1.69,2,37.51,37.51,0,0,0,3.2,2.18c-1.42,2.82-5.61,4.6-9.28,3.58C57.87,65,56.4,63.84,54.84,63Z"/><path class="cls-19" d="M337.32,104.39c.12-1.59-1.08-3.91,2.12-3.77l2.15.39,1.35-.66c2.62-2.2,2.78-3.33,1.08-7.69a5,5,0,0,1,1.42-1,4.12,4.12,0,0,1,2.53-.15c.42.19.31,1.43.52,2.18.28,1,.64,2,1,2.92.12.25.24.49.37.73l-2.13,3.17a2.65,2.65,0,0,0-.29.29,8.37,8.37,0,0,1-1.27,2c-.6.54-1.7,1.3-2.19,1.08-2.09-.93-3.34-.12-4.39,1.56l-1-.06-1-.55A2,2,0,0,1,337.32,104.39Z"/><path class="cls-15" d="M80.3,203.5c-2.22.09-4.07-.17-3-3.18a.38.38,0,0,0,0-.25c-2.24-3.24,1-5,2-7.37a2.1,2.1,0,0,1,1.34-1c1.5-.33,3.15-.92,4.53-.57,1.09.27,1.85,1.8,2.76,2.77L86.8,196c-3.43-1.46-5.64-.84-6.12,2-.19,1.11.46,2.36.72,3.54C81,202.15,80.66,202.82,80.3,203.5Z"/><path class="cls-19" d="M80.3,203.5c.36-.68.73-1.35,1.1-2,2.14,1.43,4.15,1,5.25-1.11.62-1.16.13-2.91.15-4.4l1.14-2.08c2,.1,3.51.65,2.72,3.21a1.81,1.81,0,0,0,.46,1.36c1.22,1.53.7,2.6-.8,3.47-.22.13-.56.26-.6.44-.65,3-2.84,3-5.34,3.41C81.47,206.19,81.27,206.44,80.3,203.5Z"/><path class="cls-23" d="M37.31,96.69c3.88,0,7.76,0,11.64,0,1.6,0,2.56.42,2.57,2.26s-.93,2.32-2.54,2.3c-3.88,0-7.76,0-11.64,0Z"/><path class="cls-26" d="M438,115.38a79.13,79.13,0,0,1-7.24,3.39,6,6,0,0,1-4-.07c-2.52-1-4.88-2.42-7.3-3.67,2.5-.14,5-.35,7.5-.41,3-.07,5.9-.07,8.85,0A7.75,7.75,0,0,1,438,115.38Z"/><path class="cls-4" d="M358.87,144.32l6,0c3.41,1.09,4.1.65,4.1-2.69,0-2.32-.07-4.65-.1-7,0-.48,0-1,0-1.45-.29-2.46-.59-4.92-.88-7.38L370,125q-.09,10.89-.17,21.78l-11-.1Z"/><path class="cls-9" d="M83.35,44.49l4.51,1.88A6.56,6.56,0,0,1,81.35,50c-3-.28-5.78-1.07-6.84-4.43l5.18-1C80.92,46.55,82.14,46,83.35,44.49Z"/><path class="cls-1" d="M360.5,47c-.17-1-.33-2-.58-3.44,3.89,0,7.57-.11,11.23,0a45.67,45.67,0,0,1,5.86,1l-.24,2-.23,0-.18-.27.16.31-.46.71Z"/><path class="cls-26" d="M46.22,42.47a2.7,2.7,0,0,0-.7.28c-5.57,4.29-11,2.92-16.4-.37.71-.34,1.42-1,2.14-1q6.52-.15,13,0C45,41.43,45.58,42.1,46.22,42.47Z"/><path class="cls-1" d="M405.06,154.54c-.65.3-1.48,1-1.93.82a28,28,0,0,1-5.68-3c-1.81-1.32-1.52-3,.57-4a54.89,54.89,0,0,1,5.17-1.87l.63.33a1.16,1.16,0,0,0,0,.37c.33,2.14.67,4.29,1,6.43Z"/><path class="cls-3" d="M379.24,122.86c.64-.72,1.14-1.69,1.93-2.11,3.55-1.84,3.58-1.78,2.57-5.65.74-.72,1.35-1.77,2.24-2.1,1.93-.74,3.35.18,4.13,2.06a4.75,4.75,0,0,1-.15,1.48c-1,2.19.11,3.11,2.05,3.82a15.33,15.33,0,0,1,3,2l-.56.7c-1.85-3.38-4.5-3.07-6.86.81-.77-.86-1.4-2-2.36-2.49a5.28,5.28,0,0,0-3.21-.23c-.55.1-1.45,1.23-1.33,1.52a6.66,6.66,0,0,0,1.89,2.4A10.86,10.86,0,0,0,385,126.2,6.22,6.22,0,0,1,379.24,122.86Zm10.94-6.25c-1.37-.87-2.25-1.82-2.74-1.66-.9.31-2.18,1.29-2.17,2s1.18,1.66,1.85,2.49Z"/><path class="cls-26" d="M385,126.2a10.86,10.86,0,0,1-2.46-1.14,6.66,6.66,0,0,1-1.89-2.4c-.12-.29.78-1.42,1.33-1.52a5.28,5.28,0,0,1,3.21.23c1,.5,1.59,1.63,2.36,2.49,2.36-3.88,5-4.19,6.86-.81l-2.07,1.61a.6.6,0,0,1-.35.33l-.95.56-1.86.65Z"/><path class="cls-23" d="M51.51,110.2l-14,.07L37,105.94a1.11,1.11,0,0,1,.34-.18l.75.73c-.3,1.32.1,2.08,1.58,2.12,1.3,0,2.38-.1,2.21-1.81,2.77-1.88,5.83-1,8.71-.59C51.07,106.28,51.2,108.81,51.51,110.2Z"/><path class="cls-26" d="M403.85,147.21a1.2,1.2,0,0,1,0-.38l-1.33-4.63.24-.44c2.29-3.78,3.51-3.94,6.47-.9.26.27.77.29,1.16.42-.49,1.89-1,3.77-1.48,5.66l-.09-.17-2.51,1.9a.73.73,0,0,1-.35.21Z"/><path class="cls-21" d="M277.38,79.48l2.46-3.32,2-.12,1.29,2.85c1.19-1.07,2-1.79,2.82-2.51l3.29,2.4C286.89,82.37,280.15,82.63,277.38,79.48Z"/><path class="cls-28" d="M248.94,18.55c-1.21.88-2.48,1.7-3.62,2.66a14.15,14.15,0,0,0-1.75,2.15c.79.48,1.58,1,2.39,1.43a7.4,7.4,0,0,0,.95.34c-6.13,5.4-6.17,5.4-7.61.69l7.14-9.64Z"/><path class="cls-1" d="M107.76,103.88l6.36-2.56,1.2,2.25c0,1.54,0,3.09,0,4.63l-.39.44A7.06,7.06,0,0,1,107.76,103.88Z"/><path class="cls-10" d="M278.78,112.87a2.68,2.68,0,0,1-.47,3.61c-.65.7-.76,1.91-1.12,2.89l-5.88.16c0-.37-.08-.73-.13-1.1a9.31,9.31,0,0,0,.45-2.39c-.16-2.07.68-2.82,2.74-2.73A30.08,30.08,0,0,0,278.78,112.87Z"/><path class="cls-1" d="M120.05,101l6.34,2.85c-1.18,3.11-3.86,4.86-7.59,5C119.22,106.23,119.63,103.63,120.05,101Z"/><path class="cls-29" d="M410.36,141.28c-.39-.13-.9-.15-1.16-.42-3-3-4.18-2.88-6.47.9l-.24.44a.35.35,0,0,0-.33-.29c-.05-1-.16-2-.13-3,.11-2.9,1.81-4.54,4.39-4.29,3.21.32,4.6,1.93,4.26,5C410.62,140.13,410.47,140.7,410.36,141.28Z"/><path class="cls-27" d="M318.23,172.56l-13.6,0c-.22-.7-.43-1.4-.65-2.1l.15-.2,14.11-.32c.05.18.1.36.16.54C318.34,171.2,318.28,171.88,318.23,172.56Z"/><path class="cls-14" d="M367.94,125.78c.29,2.46.59,4.92.88,7.38L367.7,132c-.26-1.11-.3-3-.83-3.18-1.32-.37-2.87.06-4.32.18l-.69-.2-6-1.21-.09-2Z"/><path class="cls-21" d="M367.94,125.78l-12.14-.22c-.61-1.74.59-2.13,1.82-2.15,3.59-.09,7.19-.11,10.78,0,.55,0,1.06,1,1.59,1.56Z"/><path class="cls-26" d="M358.78,146.68l11,.1c.21,1.38.17,2.64-1.7,2.62-3.95-.05-7.9-.15-11.85-.23l.54-2.39Z"/><path class="cls-21" d="M151.27,79.54l-12,0c-.35-1.39.28-2.14,1.63-2.17,3.43-.06,6.85,0,10.28,0,1.43,0,2,.76,1.54,2.14Z"/><path class="cls-10" d="M19.1,168.58l9.84,0c4.84,0,6-.91,7.29-5.47,1.19,3.41-.54,6.12-4.12,6.24-3.19.11-6.39,0-9.58,0-2.78,0-3.71.81-3.46,3.6a29.87,29.87,0,0,0,1.43,5.27,7.21,7.21,0,0,1-2-7.84C18.67,169.82,18.89,169.2,19.1,168.58Z"/><path class="cls-29" d="M408.88,146.94l6,2c-.27,2.09-2.51,4.59-4.49,4.69-.45,0-1.17-1-1.37-1.6a12.63,12.63,0,0,1-.2-2.83c0-.8-.05-1.6-.07-2.39Z"/><path class="cls-15" d="M121.44,39.32l1.93,1.84c-.44,1.39-.89,2.78-1.33,4.17l-1.16.29-3.5.44.24-3.67,2.18-2.88,1.13-.39Z"/><path class="cls-27" d="M310.17,152.77a.26.26,0,0,1,.25-.11l4.92,1.05c-.3,1.21-.61,2.43-.91,3.65l3.39-.52a.7.7,0,0,0,.23-.11,1.7,1.7,0,0,1,.45.15c-2.31,2.27-6,3-8.48,1.63,2.39-1,2.43-2.39.13-4.83Z"/><path class="cls-10" d="M326.87,136.65c1.7-2.75,3.7-4.92,7.37-4.52,1.58.16,3.19-.08,4.77.05,3.54.28,6.84-.15,9.57-2.67-.85,2.91-3.26,3.38-5.76,3.5a70.34,70.34,0,0,1-7.82,0,7.05,7.05,0,0,0-6.28,2.45A7.25,7.25,0,0,1,326.87,136.65Z"/><path class="cls-15" d="M106.61,42.42c-.08-1.58.82-2,2.21-1.91.06.59.11,1.18.18,1.84l2.21-1.13c.67,1.41,1.24,2.63,1.81,3.86v1l-2.83.15-1-.11-1.44-.52,0,0C107.33,44.5,107,43.46,106.61,42.42Z"/><path class="cls-7" d="M307.29,119.33c.28-.26.53-.68.85-.75,3.82-.85,4.86-2.82,3.45-6.61l2.13,1.39c-.25,1.55-.5,3.1-.83,5.08h6.44c0,.53-.08,1-.13,1.57Z"/><path class="cls-4" d="M141.65,100.16c-.08-1.63.95-2,2.28-2h8.81c0,.51,0,1,.07,1.53l-.15.52a3.58,3.58,0,0,0-.45.09l-5.56-.06h-.93Z"/><path class="cls-27" d="M176.65,103.7l1.41.19c0,.17,0,.34,0,.51-4.25.13-8.5.32-12.75.34-2.65,0-5.3-.24-8-.37a17.32,17.32,0,0,1,2.89-.5C165.73,103.77,171.19,103.75,176.65,103.7Z"/><path class="cls-1" d="M408.86,149.15a12.68,12.68,0,0,0,.2,2.84c.2.64.92,1.63,1.37,1.6,2-.1,4.22-2.6,4.49-4.69.22.74.85,1.79.57,2.16a11.26,11.26,0,0,1-7.56,4.36c-.17,0-.42-.41-.64-.63.16-.39.34-.78.51-1.18C408.15,152.13,408.5,150.64,408.86,149.15Z"/><path class="cls-27" d="M152.21,100.34a3.58,3.58,0,0,1,.45-.09l.54.5c.13,1.59-.56,2.26-2.19,2.23-3.25-.07-6.5,0-9.75,0-1.92,0-2.92-.7-2-2.77l1,.1c-.18,1.4.44,2,1.85,2,2.76,0,5.53,0,8.29,0C151.68,102.29,152.4,101.79,152.21,100.34Z"/><path class="cls-5" d="M310.15,153.68c2.3,2.44,2.26,3.85-.13,4.83l-.74-.26-1.26-.71a.32.32,0,0,1-.29-.16l-.43-.54-.05-3.26,1.93-.15Z"/><path class="cls-26" d="M381.26,63.73c.32.24.64.48.95.74,1.79,1.48,2.27,1.35,2.71-.86.22-1.06.3-2.13.45-3.2.6,2.37,1.19,4.75,1.79,7.12l-.56.69Z"/><path class="cls-25" d="M127.82,39.17a19.66,19.66,0,0,0,.13-15.8c3.27,3.44,2.75,7.61,2,11.69C129.73,36.51,128.57,37.81,127.82,39.17Z"/><path class="cls-25" d="M120.05,101c-.42,2.61-.83,5.21-1.25,7.82-1.36,1.46-2.64,1.2-3.85-.2l.39-.44c1.79.89,2.81.76,2.53-1.66a10.77,10.77,0,0,1,.45-2.86L120,98.54Z"/><path class="cls-19" d="M398.05,70.62c.36-1.26.73-2.51,1.08-3.77.25-.87.46-1.76.69-2.64a21.28,21.28,0,0,1,.09,2.87c-.25,2.2.22,2.76,2.24,1.81,1.53-.72,2.74-2.12,4.09-3.22l.13,1.82C404.17,70.07,401.1,70.3,398.05,70.62Z"/><path class="cls-12" d="M407.8,153.61c-.17.4-.35.79-.51,1.18l-2.23-.24-.21-.91,1.08-4.76a.82.82,0,0,0,.36-.21Q407,151.14,407.8,153.61Z"/><path class="cls-25" d="M110.19,46.2l2.83-.15h4.36l3.5-.44C118,47.92,112.21,48.23,110.19,46.2Z"/><path class="cls-15" d="M339.55,105.42c1.05-1.68,2.3-2.49,4.39-1.56.49.22,1.59-.54,2.19-1.08a8.37,8.37,0,0,0,1.27-2c0,.69.09,1.38.13,2.07-.93,2-2.19,2.61-4.44,1.79C342.14,104.28,340.75,105.12,339.55,105.42Z"/><path class="cls-7" d="M151.27,79.54l1.47-.1c1.13,3.07,1.65,6.14.14,9.25C152.84,85.55,152.83,82.41,151.27,79.54Z"/><path class="cls-27" d="M406.37,67.49c-.05-.61-.09-1.21-.13-1.82.46-1.49.93-3,1.39-4.47l1.17,4.3Z"/><path class="cls-19" d="M386.6,68.22l.56-.69c2.23.76,4.46,1.5,6.7,2.25l2.14.86A10.21,10.21,0,0,1,386.6,68.22Z"/><path class="cls-25" d="M122,45.33c.44-1.39.89-2.78,1.33-4.17,1,1.06,1.94.91,2.84-.19.46-.55,1-1,1.5-1.56C127.14,42.65,124.54,43.94,122,45.33Z"/><path class="cls-27" d="M352.71,70.44l5.31,0-.72,2.52Z"/><path class="cls-27" d="M153.74,112a.21.21,0,0,1-.24-.13c.06-1.89,0-3.78.23-5.65.06-.63.71-1.19,1.09-1.78Z"/><path class="cls-25" d="M106.61,42.42c.36,1,.72,2.08,1.09,3.13l-3.48-2.44Z"/><path class="cls-26" d="M377.17,56.78,380,62.15Z"/><path class="cls-25" d="M98.89,33.81c1.06,2.37,2.13,4.75,3.2,7.12A7.87,7.87,0,0,1,98.89,33.81Z"/><path class="cls-15" d="M279,36.49V29.31A5.91,5.91,0,0,1,279,36.49Z"/><path class="cls-14" d="M358.78,146.68l-2,.1-1.09-.87c.06-.56.12-1.12.17-1.68l3,.09C358.84,145.11,358.81,145.89,358.78,146.68Z"/><path class="cls-7" d="M152.8,98.17q0-3.09.08-6.16C154,94.08,154.33,96.13,152.8,98.17Z"/><path class="cls-11" d="M114.17,128.4l-5.79,2Z"/><path class="cls-15" d="M265.65,17.34l-6.61.73A6.73,6.73,0,0,1,265.65,17.34Z"/><path class="cls-25" d="M122,17.49l-6.08-1.84A5.89,5.89,0,0,1,122,17.49Z"/><path class="cls-25" d="M110.76,15.87l-5,2.29Z"/><path class="cls-11" d="M122.23,129.89l-4.78-1.48Z"/><path class="cls-26" d="M318.5,156.88a1.7,1.7,0,0,0-.45-.15l.15-3.12c.58.6,1.16,1.19,1.74,1.8Z"/><path class="cls-15" d="M347.69,100.48l2.13-3.17C351.07,99.39,350.56,100.15,347.69,100.48Z"/><path class="cls-25" d="M402.16,141.91a.35.35,0,0,1,.33.29l1.33,4.63-.63-.32C402.85,145,402.5,143.44,402.16,141.91Z"/><path class="cls-14" d="M333.57,43.93,329,43.58Z"/><path class="cls-11" d="M126.23,133,123,130.41Z"/><path class="cls-11" d="M104,134.7c-.63,1.43-1.25,2.87-1.88,4.3C102.72,137.57,103.34,136.13,104,134.7Z"/><path class="cls-15" d="M276.62,42.2l-.09-.6,2.32-4.13C278.11,39.05,277.37,40.62,276.62,42.2Z"/><path class="cls-26" d="M307.25,153.58c0,1.08,0,2.17.05,3.26a.44.44,0,0,0-.09.27l-1.26-.86C306.39,155.36,306.82,154.47,307.25,153.58Z"/><path class="cls-21" d="M355.72,145.91l1.09.87-.54,2.39C356.09,148.09,355.91,147,355.72,145.91Z"/><path class="cls-10" d="M64.12,181.12l4.08-1.94Z"/><path class="cls-15" d="M253.4,21.23l-2.34,2.63.45-2.41Z"/><path class="cls-25" d="M98.8,29.41c0,1.14,0,2.29,0,3.43C98.79,31.7,98.79,30.55,98.8,29.41Z"/><path class="cls-10" d="M324.86,138.68,323.54,140l-.63-.45c.25-.49.49-1,.74-1.48Z"/><path class="cls-11" d="M129.08,137.61c-.49-1-1-1.9-1.46-2.84l1.6,2.25C129.17,137.22,129.13,137.41,129.08,137.61Z"/><path class="cls-8" d="M147.14,41.92l-3,1.47Z"/><path class="cls-25" d="M125.15,19.84,122.8,18Z"/><path class="cls-10" d="M23.53,180.5l2.69.66Z"/><path class="cls-14" d="M50.7,148.62l-2.77-1Z"/><path class="cls-26" d="M376.47,52.73l.06,1.32Z"/><path class="cls-15" d="M272.24,19.66l-2.63-1.37Z"/><path class="cls-27" d="M324.86,138.68l-1.21-.59.59-.89,1.6,0,.09.59Z"/><path class="cls-15" d="M257.79,18.41l-2.28,1.27Z"/><path class="cls-14" d="M320.37,51l-2,.22Z"/><path class="cls-14" d="M43.48,147.72l-2.28.89Z"/><path class="cls-15" d="M278.14,26.51,277,24.23Z"/><path class="cls-14" d="M37.23,152.23,36,154.43C36.39,153.7,36.81,153,37.23,152.23Z"/><path class="cls-25" d="M105.27,18.4l-1.57,1.27Z"/><path class="cls-3" d="M389.2,126.2l1.86-.65Z"/><path class="cls-14" d="M148.65,71.23c0-.69.09-1.39.14-2.08l.58-.08c.1.75.2,1.5.29,2.25l-.59.27Z"/><path class="cls-14" d="M38.84,150.32c-.46.52-.93,1-1.4,1.55C37.91,151.35,38.38,150.84,38.84,150.32Z"/><path class="cls-26" d="M376.54,46.59l.23,0-.24,1.07-.47-.3.45-.71Z"/><path class="cls-25" d="M127.72,22.86l-1.2-1.56Z"/><path class="cls-25" d="M102.61,20.79l-1.25,1.62Z"/><path class="cls-15" d="M268.7,18.09l-1.81-.64Z"/><path class="cls-10" d="M349.2,128.09c.14-.52.28-1,.43-1.55C349.48,127.06,349.34,127.57,349.2,128.09Z"/><path class="cls-2" d="M148.65,71.23l.42.36-1.8.65Z"/><path class="cls-25" d="M107.72,45.57l1.44.52Z"/><path class="cls-25" d="M99.51,26.38c-.18.53-.36,1.07-.55,1.6C99.15,27.44,99.33,26.91,99.51,26.38Z"/><path class="cls-1" d="M355.69,46.66l1-1.64,0,0c0,.59,0,1.18-.07,1.77Z"/><path class="cls-8" d="M66.74,165.42l-1.62-.58Z"/><path class="cls-27" d="M308,157.54l1.26.71Z"/><path class="cls-15" d="M255.44,19.72l-1.43,1Z"/><path class="cls-15" d="M276.87,24.07l-1-1.32Z"/><path class="cls-10" d="M325.23,134.05l-.69,1.67Z"/><path class="cls-14" d="M328,43.77l-1.58.73Z"/><path class="cls-27" d="M319.86,128.55l1,1.41Z"/><path class="cls-25" d="M101.1,22.84c-.23.35-.45.71-.68,1.07Z"/><path class="cls-11" d="M105.05,133.23l-.54.79Z"/><path class="cls-11" d="M127.05,134l-.5-.72Z"/><path class="cls-11" d="M107.6,131l-.78.49Z"/><path class="cls-14" d="M321.75,49c-.21.38-.41.77-.61,1.15C321.34,49.79,321.54,49.4,321.75,49Z"/><path class="cls-27" d="M353.68,77.38l1.24-.87Z"/><path class="cls-23" d="M78,102.25c0-.28.07-.57.11-.85C78.08,101.68,78.05,102,78,102.25Z"/><path class="cls-25" d="M102.86,41.93l.87.84Z"/><path class="cls-23" d="M78.1,104.09l-.09-.83Z"/><path class="cls-23" d="M70.4,59.38c.1-.18.2-.36.29-.54Z"/><path class="cls-14" d="M325.92,44.73l-1.15.73Z"/><path class="cls-14" d="M39.89,149.38l-1,.93Z"/><path class="cls-7" d="M153.2,100.75l-.54-.5.15-.52Z"/><path class="cls-10" d="M21.54,179.36l1.15.82Z"/><path class="cls-25" d="M103.59,19.8l-.9.91Z"/><path class="cls-14" d="M353.78,62.7l-1.13-.6Z"/><path class="cls-15" d="M278.84,28.33l-.3-1Z"/><path class="cls-3" d="M392,125a.6.6,0,0,0,.35-.33Z"/><path class="cls-27" d="M271.13,121a2.13,2.13,0,0,1-.11-.33s.07-.1.11-.15A.46.46,0,0,1,271.13,121Z"/><path class="cls-27" d="M307.21,157.11a.44.44,0,0,1,.09-.27l.43.54Z"/><path class="cls-27" d="M414.87,56.45l0,.06Z"/><path class="cls-10" d="M348.68,129.09l.39-.6Z"/><path class="cls-27" d="M413.33,60l0,.08Z"/><path class="cls-8" d="M144,43.48l-.42.31Z"/><path class="cls-27" d="M271.34,136.17l-.56.1.34-.59Z"/><path class="cls-21" d="M159.31,185.74l5.38-12.49,2.33-3.66q0,4.54.08,9.09c0,3.5,0,3.51,3.51,3.51h71.7c.92,0,1.84-.11,2.76-.16l3.21,4.36H162.85c-1.09,0-2.19-.1-3.28-.16Z"/><path class="cls-17" d="M159.31,185.74l.26.48a21.25,21.25,0,0,1-6,11c-.41.38-.91.68-1.36,1a9.29,9.29,0,0,1,1.35-2.3,16,16,0,0,0,4.79-8.61A5.44,5.44,0,0,1,159.31,185.74Z"/><path class="cls-17" d="M146.26,210.58l-.16-.16c1-3.52,1.44-7.24,4.24-10Z"/><path class="cls-17" d="M151.22,199.34l.89-1Z"/><path class="cls-28" d="M251.6,92.77l-4.16,5-7.2,6a10.42,10.42,0,0,1-1.73.29L195.42,104a.27.27,0,0,0,0-.32c-1.75-4.6,2.64-6.44,4.33-9.46a51.7,51.7,0,0,1,4.06-5.36c.57-.74,1.06-1.54,1.59-2.32a20.21,20.21,0,0,0,.14,3.66c.11.54.94,1,1.44,1.41,2.43.05,4.85.17,7.28.15,5.53,0,11-.15,16.58-.23.07,0,.13.11.21.12s.21,0,.22-.07a9.92,9.92,0,0,0,.34-1.92c0-6.89-.05-13.78.07-20.66,0-2.36-.8-3-3.08-3-5.88.09-11.75-.07-17.63-.13.47-2.42,1.47-4.42,4-5.2a23.16,23.16,0,0,0,3.34.65c3.64.15,7.28.18,10.92.26l.91,1.69,0,.05c.58,1.68,1.85,2,3.42,1.73,2.63-.46,5.25-.94,7.88-1.42l1.37.69,2.56.94h0l.3,3.6.24.91,1.43,1.59c.06.28.12.57.17.86.32,1.06.64,2.12,1,3.18,0,.33,0,.66,0,1-.15.55-.31,1.1-.46,1.65-.18,1.28-.36,2.56-.55,3.84l.77,1.15,1.1,2.51,1,4.05c.38.65.76,1.29,1.13,1.94Z"/><path class="cls-8" d="M187.29,85.07c0-.53,0-1.06,0-1.59-.06-3.1-1.76-5.25-4.12-7l-2.32-1.61-1.26-1.44a3.65,3.65,0,0,1,.86-.89,11.69,11.69,0,0,0,5.9-6.52c.59-1.76.89-3.62,1.48-6.15,2.31,1.14,4.41,2.28,6.61,3.23a18.25,18.25,0,0,0,3.36.75l1,.09c.31.67.88,1.34.89,2,0,2.53,1.64,3.17,3.71,3.45a16.33,16.33,0,0,1,1.92.48V73.4a16.81,16.81,0,0,0-2.55,2.26c-4,5.25-7.86,10.57-11.82,15.84a14.4,14.4,0,0,1-2,1.79C188.3,90.2,187.79,87.64,187.29,85.07Z"/><path class="cls-22" d="M205.32,73.4V68.93c0-2.35,1.14-3.21,3.41-2.88a9.58,9.58,0,0,0,2.19-.15c5.88.06,11.75.22,17.63.13,2.28,0,3.12.63,3.08,3-.12,6.88,0,13.77-.07,20.66a9.92,9.92,0,0,1-.34,1.92s-.15.08-.22.07-.14-.08-.22-.12V68l-1.06-.55a26.2,26.2,0,0,1-2.64,3.34c-1.15,1.07-1.54,2.11-.82,3.52a14.12,14.12,0,0,0-12.74-1.55,8.75,8.75,0,0,0-3.4,2.43c-.46.49-.24,1.62-.32,2.45.76-.28,1.73-.35,2.26-.87,3.2-3.11,9.72-3.12,12.89-.08.62.6,1.85.57,2.81.84l-4.82,4.16c-4.73-2.52-8.37-2-9.24,1.59h2.46c-.35.32-.64.79-1,.94-3.78,1.34-6,4.42-8.18,7.44-.5-.46-1.33-.87-1.44-1.41a20.13,20.13,0,0,1-.14-3.65Zm13,1.7c-2.13,1-4,1.82-5.76,2.82-.38.21-.33,1.15-.48,1.76.62,0,1.46.4,1.82.12,3-2.32,5.88-2.5,8.89,0,.32.26,1.07,0,1.61,0-.07-.53,0-1.38-.26-1.55C222.33,77.09,220.43,76.18,218.33,75.1Z"/><path class="cls-16" d="M189.94,36.43a23.28,23.28,0,0,1,.06-4.18c.11-.62,1.1-1.06,1.69-1.59L192.81,32l1,.82,1,.14a10.32,10.32,0,0,0,1.79,1.6c5.79,3.15,11.62,6.23,17.41,9.38A33.22,33.22,0,0,1,217,46H208.4l-17.62-.06c0-2.09,0-4.18-.11-6.26A19.64,19.64,0,0,0,189.94,36.43Z"/><path class="cls-8" d="M214.54,9.87l8.13-.12,1.44-.06,1.53-.09,5-.34,1.6.44c0,.45,0,.91,0,1.36-.09.18-.18.37-.26.55L231.15,13l-2,1.18-1,1.39c-2.84,1.23-5.7,2.4-8.51,3.7a14.36,14.36,0,0,0-3.93,2.34c-1,1-1.81,2.18-3.3,1a2.86,2.86,0,0,1-.81-4.2c1.6-2.45,1.38-3.62-1.08-5.45a15.65,15.65,0,0,1,1.9-2.22A7.94,7.94,0,0,1,214.54,9.87Z"/><path class="cls-17" d="M229.22,61.61c-3.64-.08-7.28-.11-10.92-.26A23.16,23.16,0,0,1,215,60.7c0-2.89,0-5.78.11-8.67a8.31,8.31,0,0,1,.84-2.3c1.34.68,2.73,1.27,4,2.05,3.6,2.18,7.21,3.95,11.37,1.39l-2.52,3,8.28,3.69c-.33-3.33-.61-6.07-.88-8.81l.33-1.27c.34.41.95.81,1,1.23.09,2.91.16,5.83,0,8.74,0,.57-1.06,1.45-1.74,1.56a47.21,47.21,0,0,1-5.46.32Zm-13.16-6.88c.27,1.2-.56,3.58,2,3.22,1.67-.23,3.18-1.61,4.77-2.48l-3.23-2.67-.21-.13C216.47,51.09,216.06,51.32,216.06,54.73Z"/><path class="cls-26" d="M192.81,32l-1.12-1.31c2.58-.12,5.16-.23,7.73-.39,1.15-.07,2.3-.23,3.45-.35,4.95,0,9.9,0,14.84.16.91,0,1.8.82,2.7,1.25L213,34.55l-.43.37,0,0-2,1h0a5.89,5.89,0,0,0-2.1.67c-1.94,1.64-3.7,1.15-5.7.06-2.54-1.39-5.23-2.5-7.85-3.74l-1-.14Z"/><path class="cls-16" d="M213,34.55l7.46-3.22q0,6.6.08,13.2c-4.59-1-8.5-3.4-12.34-5.75l2.32-2.84h0l2-1,0,0Z"/><path class="cls-28" d="M232.84,36.32c0,.38,0,.75,0,1.12l-.06,1c.43,1.19,1.57,2.75,1.17,3.47-1,1.9-2.76,3.42-4.18,5.12-.61.72-1.14,1.52-1.71,2.28h-4.94a64.81,64.81,0,0,1,3.5-5.64C228.58,41.15,230.76,38.77,232.84,36.32Z"/><path class="cls-26" d="M223.14,49.34h4.94l8.42.41L236.17,51l-2.91,1.2-1.19.88-.78.07c-4.16,2.56-7.77.79-11.37-1.39-1.28-.78-2.67-1.37-4-2.05Z"/><path class="cls-4" d="M197.79,63.84a18.25,18.25,0,0,1-3.36-.75c-2.2-1-4.3-2.09-6.61-3.23-.59,2.53-.89,4.39-1.48,6.15a11.69,11.69,0,0,1-5.9,6.52,3.65,3.65,0,0,0-.86.89L176.28,72c.65-.62.84-.94,1.11-1,6.08-2.12,8-4.58,8.4-11.13a6.77,6.77,0,0,1,.15-.73c2.31.26,4.61.49,6.91.78.28,0,.54.33.78.53C195,61.57,196.4,62.71,197.79,63.84Z"/><path class="cls-4" d="M188.68,20.59l3.09-2.93c.56-.14,1.51-.14,1.6-.42.65-2,2.16-3,4-2.54a34.6,34.6,0,0,1,6.36,2.61c.51.24.77,1,1.24,1.69-1.11.62-2.07,1.07-2.94,1.67-1.13.76-2.36,1.49-3.23,0-.31-.52.49-1.7.89-2.88-.84-1.28-2.65-1.84-3.74-.54C194,19.61,191.87,21.15,188.68,20.59Z"/><path class="cls-17" d="M210.47,35.94l-2.32,2.84c3.84,2.35,7.75,4.71,12.34,5.75-.16,2.88-2.24,1.17-3.48,1.45a33.22,33.22,0,0,0-3-2.07c-5.79-3.15-11.62-6.23-17.41-9.38a10.32,10.32,0,0,1-1.79-1.6c2.62,1.24,5.31,2.35,7.85,3.74,2,1.09,3.76,1.58,5.7-.06A5.89,5.89,0,0,1,210.47,35.94Z"/><path class="cls-4" d="M214.54,9.87a7.94,7.94,0,0,0-2.13.87,15.65,15.65,0,0,0-1.9,2.22,13,13,0,0,0-3.68-.8,42.35,42.35,0,0,0-6.08,1.17c-1.14.26-2.24.67-3.73,1.12a47.39,47.39,0,0,1,4.95-4.4c3.15-2.09,6.71-1.59,10.2-1A15.07,15.07,0,0,1,214.54,9.87Z"/><path class="cls-4" d="M176.07,15.21c1.59-2.18,3-2.13,9.23.4-1.46,1.85-5.31,2.11-6.82.63A7.17,7.17,0,0,0,176.07,15.21Z"/><path class="cls-28" d="M238.85,30.92l-1.07.45c-.16.18-.31.36-.47.53l.76,2.4a27,27,0,0,1-2.61.8,14.49,14.49,0,0,1-2.19.08l3.53-5.33,2,.06Z"/><path class="cls-4" d="M205.32,68.93v.94a16.33,16.33,0,0,0-1.92-.48c-2.07-.28-3.67-.92-3.71-3.45,0-.67-.58-1.34-.89-2,.72.48,1.95.85,2.07,1.44C201.37,68,203.28,68.46,205.32,68.93Z"/><path class="cls-17" d="M189.94,36.43a19.64,19.64,0,0,1,.73,3.24c.14,2.08.09,4.17.11,6.26-.37-.68-1-1.34-1.06-2-.2-2.3-.19-4.62-.26-6.93Z"/><path class="cls-4" d="M231.82,18.68c-.38,2.42-1.67,2.66-3.14,2.28-.25-.06-.31-.87-.46-1.33Z"/><path class="cls-4" d="M230.65,9.26l-5,.34C227.21,8,228.92,8.48,230.65,9.26Z"/><path class="cls-4" d="M232.23,11.06c0-.45,0-.91,0-1.36h2.52l.09.8Z"/><path class="cls-4" d="M201.8,24.32c-1.15-.2-2.61,1.26-3.44-.64Z"/><path class="cls-4" d="M189.23,28.4l-1.1.75-.92-2.37Z"/><path class="cls-4" d="M185.92,54.21c0-.69,0-1.39,0-2.08l1.41,1.26Z"/><path class="cls-8" d="M185.75,50.1c-.29-.88-.59-1.76-.89-2.64C185.16,48.34,185.46,49.22,185.75,50.1Z"/><path class="cls-4" d="M183.6,24.81c-1.31-.7-1.33-1.38.05-2C183.63,23.46,183.62,24.14,183.6,24.81Z"/><path class="cls-4" d="M224.11,9.69l-1.44.06Z"/><path class="cls-4" d="M228.14,15.54l1-1.39Z"/><path class="cls-4" d="M193.68,23.66l-.93,1.65Z"/><path class="cls-4" d="M231.15,13l.82-1.36C231.69,12.06,231.42,12.52,231.15,13Z"/><path class="cls-4" d="M195.29,21.78l-1.06,1Z"/><path class="cls-4" d="M183.65,22.78l1.17-.91Z"/><path class="cls-17" d="M208.4,46h0Z"/><path class="cls-8" d="M184.25,46.43c-.12-.16-.23-.33-.34-.49C184,46.1,184.13,46.27,184.25,46.43Z"/><path class="cls-6" d="M255.88,145.68q0,9.15.07,18.29l-1,.11-1.7-4.52-.8-1.11c-.09-.28-.18-.57-.28-.85,1-1.37,2.1-2.73.42-4.35a11.8,11.8,0,0,0-3-.83q-20.94-.07-41.88,0a16.36,16.36,0,0,0-2.9.52c-1.68,0-3.37-.07-5.05,0-8.75.18-6.82-1.47-7,7.42,0,1.51.58,2.15,2.08,2.11,3.29-.08,6.57-.1,9.85-.15.76.06,1.51.17,2.26.17q20.5,0,41,0c.21.35.43.69.64,1,.05.31.09.61.13.91.08,1.18.16,2.36.25,3.53-1.35,0-2.69.1-4,.1l-40.12.07-12,.05c-1.2.29-1.37.77-.27,1.47l.21,7.47c1.49,1.57,10.36,1.64,12.07.1h0l39,.06c0,1,0,2.11,0,3.16a3.7,3.7,0,0,1-.74.13q-35.88,0-71.75.1c-1.87,0-2.45-.71-2.44-2.54.07-9,0-18,0-27q0-16.54.11-33.09H256c0,2.07,0,4.13,0,6.2l-.36.53-1.29.07-.66-.63a7.09,7.09,0,0,0-2.26-1c-1.84-.16-3.7-.06-5.55-.06l-39.89.13c-3.54,0-7.08,0-10.61-.12-1.56,0-2.1.75-2,2.21a32.88,32.88,0,0,1,.27,4.53c-.11,2,.86,2.79,2.68,2.73,3.2-.09,6.39-.26,9.59-.39,5.13,0,10.26,0,15.4.06,7,.12,13.94.35,20.9.53,0,1.48.05,3,.08,4.44-1.59.08-3.19.23-4.78.24-10.54.06-21.07.08-31.6.12-2,0-4-.16-6,0-6.7.42-6.66.46-6.29,7.27.08,1.48.59,2.14,2.1,2.1,3.36-.09,6.72-.1,10.09-.14,15.23,0,30.46.08,45.69.06.7,0,1.4-.62,2.1-.95Zm-76.65-14,1.33-.07a.55.55,0,0,0,.1.43c.21.75-.46,2.33,1.42,1.53a5.48,5.48,0,0,0,3-6,6.45,6.45,0,0,0-6-4.91,6.23,6.23,0,0,0-5.81,4.4c-.65,2.13.49,5.48,2.31,6.5.3.16.89-.22,1.35-.35C178.21,133.51,179.33,133.54,179.23,131.7Zm-.78,17.39h1.61l2.07-1,.38-.27.38-.39c.37-.17.85-.25,1.09-.52,1.93-2.23,1.33-6.56-1.12-8.39a6.19,6.19,0,0,0-8.74,1.29,5.71,5.71,0,0,0,1.88,8.4Zm3.18,29c2.7-1.07,3.92-3.42,3.33-6.44a6.23,6.23,0,0,0-5-4.7,6,6,0,0,0-6.21,3.37c-.86,2.16-1.28,4.39,1,6.11C176.38,179.07,178.83,179.66,181.63,178.1Zm1-15.34c2.49-2.38,3-4.85,1.69-7.36a5.86,5.86,0,0,0-11.05,2.17c-.11,2.05.33,3.88,2.59,5.12.28-2.07.22-4,2.71-4.2C181.38,158.27,182.5,159.79,182.62,162.76Z"/><path class="cls-15" d="M256,124.14l0-6.2c.08-1,.22-2,.23-3,0-5.66,0-5.67-5.6-5.67H172.73c-.67,0-1.47-.21-2,.07-.74.4-1.79,1.14-1.83,1.79a67.05,67.05,0,0,0,.16,6.79Q169,134.48,169,151c0,9,0,18,0,27,0,1.83.57,2.54,2.44,2.54q35.88-.09,71.75-.1a3.7,3.7,0,0,0,.74-.13l.82.36.39,1.3c-.92.05-1.84.16-2.76.16h-71.7c-3.49,0-3.48,0-3.51-3.51q0-4.55-.08-9.09c0-2.7,0-5.4,0-8.1q0-24.78.08-49.56c0-4.07,0-4.08,4-4.08h83.2c3.63,0,3.64,0,3.64,3.63q0,6.33,0,12.65l-.45.8h-.84Z"/><path class="cls-27" d="M252.61,153.25c1.68,1.62.6,3-.42,4.35h-2.6l-1,1-.18,2.9-.48,1q-20.49,0-41,0c-.75,0-1.5-.11-2.26-.17.16-2.09.31-4.18.47-6.28q22.25,0,44.5,0c1.87,0,3.27-.2,2.77-2.59Z"/><path class="cls-27" d="M243.88,177.21l-39-.06c.07-2,.15-4,.22-6,1.77,0,3.54,0,5.31,0q20-.06,39.94-.09l.17.08.57,1.5c0,.29,0,.58,0,.87.15,1.22.31,2.44.47,3.65l-4.2.53-1.56-.1Z"/><path class="cls-5" d="M292.06,220.74c2.06,3,4.17,6,6.09,9.14.19.3-.68,1.64-1.33,2a83.71,83.71,0,0,1-7.77,3.54,2.21,2.21,0,0,1-2.05-.52c-1.49-2.79-2.79-5.68-4.16-8.54Q287.46,223.55,292.06,220.74Z"/><path class="cls-25" d="M250.35,171q-20,0-39.94.09c-1.77,0-3.54,0-5.31,0-.1-1-.19-2.06-.28-3.09l40.12-.07c1.35,0,2.69-.06,4-.1l1.37.8Z"/><path class="cls-18" d="M247.4,177.66l4.19-.53,1.25.62v3.74Z"/><path class="cls-26" d="M252.84,177.75l-1.25-.62c-.15-1.21-.31-2.43-.46-3.65Z"/><path class="cls-18" d="M243.88,177.21l2,.35c-.38,1.06-.77,2.11-1.16,3.17l-.82-.36C243.87,179.32,243.88,178.26,243.88,177.21Z"/><path class="cls-26" d="M250.34,168.7l-1.37-.8-.24-3.53C249.27,165.81,249.81,167.25,250.34,168.7Z"/><path class="cls-26" d="M248,162.43l.48-1c.05.66.11,1.33.16,2C248.39,163.12,248.17,162.78,248,162.43Z"/><path class="cls-26" d="M251.09,172.61l-.57-1.5Z"/><path class="cls-27" d="M255,164.08l1-.11c-.1.55-.21,1.1-.31,1.65Z"/><path class="cls-26" d="M252.47,158.45l.8,1.11Z"/><path class="cls-26" d="M248.62,158.57l1-1Z"/><path class="cls-4" d="M205.32,73.4l0,13.17c-.53.77-1,1.57-1.59,2.31a51.7,51.7,0,0,0-4.06,5.36c-1.69,3-6.08,4.86-4.33,9.46l-5.33.88-.84-.56c.17-.76.35-1.52.53-2.28l-.34-1.19-1.61-3.45c-.28-3.56-.57-7.11-.82-10.66a4.64,4.64,0,0,1,.33-1.37c.5,2.57,1,5.13,1.62,8.22a14.4,14.4,0,0,0,2-1.79c4-5.27,7.84-10.59,11.82-15.84A16.81,16.81,0,0,1,205.32,73.4Z"/><path class="cls-27" d="M278.78,112.87a30.08,30.08,0,0,1-4.41.44c-2.06-.09-2.9.66-2.74,2.73a9.31,9.31,0,0,1-.45,2.39c-.08-1.47-.17-3-.24-4.42a5.11,5.11,0,0,1,.15-.74c1.21-8.12.47-9-7.58-9-5.44,0-10.89.19-16.33.26-.26,0-.52-.32-.78-.5l.48-.29c7.79-.31,15.57-.66,23.36-.91,3.52-.12,7.06,0,10.59,0-.4.28-.83.82-1.2.78-2.62-.22-3.22,1.37-3.64,3.51-.36,1.83-.09,3.07,1.62,4C278.16,111.41,278.4,112.27,278.78,112.87Z"/><path class="cls-26" d="M167,161.49c0,2.7,0,5.4,0,8.1l-2.33,3.66c.35-3.59.68-7.17,1-10.76l-.75-.35c-1.23,2.28-3.09,2.52-5.3,2.25-.52-.07-1.3,1.06-1.76,1.77a28.62,28.62,0,0,0-1.5,3c.88-3.13,1.59-6.32,2.7-9.37.82-2.26,3.77-2.5,5.69-.67C165.57,159.85,166.27,160.69,167,161.49Zm-2.44-.47h.2l-.09-.2Z"/><path class="cls-28" d="M189.73,101.74c-.18.76-.36,1.52-.53,2.28l-4-.16-2.61-1.22,5.21-5.54,1.61,3.45C189.5,101,189.62,101.34,189.73,101.74Z"/><path class="cls-30" d="M246.88,103.74l-.48.29-6.16-.24,7.2-6Q247.17,100.76,246.88,103.74Z"/><path class="cls-11" d="M265.16,132.09l-2.1.06q0-3.26,0-6.51l-5.6-.71.45-.8c1.82.05,3.65.12,5.47.14,1.43,0,2.18.62,2.09,2.13C265.34,128.3,265.26,130.19,265.16,132.09Z"/><path class="cls-27" d="M190,104.58l5.33-.88a.27.27,0,0,1,0,.32Z"/><path class="cls-4" d="M178.08,104.4c0-.17,0-.34,0-.51l4.07.16Z"/><path class="cls-28" d="M250.23,43.58c-1.57-.46-3.31-.58-3.7-2.76-.06-.35-1.26-.76-1.89-.69-2.3.24-4.58.67-6.86,1l0-.72c1.35-1.49,2.5-3.25,4.1-4.38a4.22,4.22,0,0,1,5.74.34Z"/><path class="cls-15" d="M250.23,43.58l-2.64-7.19c.23-.51.47-1,.71-1.54l3.87,7.74,2.33,3Z"/><path class="cls-2" d="M241.47,63.66c-2.63.48-5.25,1-7.88,1.42-1.57.28-2.84,0-3.42-1.73,3.15,1.34,6.26.62,9.4-.09A4.81,4.81,0,0,1,241.47,63.66Z"/><path class="cls-15" d="M250.19,25.32l-1.86,5.48C248.16,28.7,247.53,26.45,250.19,25.32Z"/><path class="cls-2" d="M250.38,89.62l-1-4.05Z"/><path class="cls-2" d="M245.7,68.89l-.3-3.6C247.3,66.34,245.65,67.69,245.7,68.89Z"/><path class="cls-2" d="M248.49,75.43c-.31-1.06-.63-2.12-1-3.18C247.86,73.31,248.18,74.37,248.49,75.43Z"/><path class="cls-2" d="M245.4,65.29l-2.56-.94Z"/><path class="cls-2" d="M247.37,71.39l-1.43-1.59Z"/><path class="cls-2" d="M237.75,40.43l0,.72-1.15.1-.08-.43Z"/><path class="cls-2" d="M229.22,61.61h1l-.12,1.7Z"/><path class="cls-2" d="M248,78.07c.15-.55.31-1.1.46-1.65C248.35,77,248.19,77.52,248,78.07Z"/><path class="cls-2" d="M251.6,92.77l-.09-1.21,1,.06Z"/><path class="cls-2" d="M248.26,83.06l-.77-1.15Z"/><path class="cls-2" d="M232.8,38.47l.06-1Z"/><path class="cls-2" d="M238.85,30.92l-.06-1,.76.45Z"/><path class="cls-15" d="M258.84,48l2,.56Z"/><path class="cls-15" d="M255.5,46.31l1.11,1Z"/><path class="cls-15" d="M254.48,45.57l.72.54Z"/><path class="cls-2" d="M237.31,31.9c.16-.17.31-.35.47-.53C237.62,31.55,237.47,31.73,237.31,31.9Z"/><path class="cls-24" d="M149.27,59.32c-.44-1.13-.89-2.26-1.32-3.38.54-.5,1.1-1,1.62-1.52,1.31-1.33,3-1.6,4.24-.43.8.73,1.52,2.63,1.11,3.35-.59,1-2.18,1.63-3.45,2.15C150.86,59.74,150,59.39,149.27,59.32Z"/><path class="cls-24" d="M161.47,53.37c2.15,0,3.56,1.35,3.41,3.14s-1,3-3,3.06a2.93,2.93,0,0,1-3.21-3.28A2.72,2.72,0,0,1,161.47,53.37Z"/><path class="cls-24" d="M175,56.48c-.17,2-1.19,3.09-3.2,3.08s-3-1.24-3-3.23a2.64,2.64,0,0,1,2.95-2.95A3,3,0,0,1,175,56.48Z"/><path class="cls-14" d="M180.84,74.86l2.32,1.61-1.17.71-3.6-1.93Z"/><path class="cls-14" d="M169.78,72.08l-2.28-.67Z"/><path class="cls-24" d="M149.37,69.07l-.58.08.12-.53Z"/><path class="cls-14" d="M175.53,74.23l-1.21-.47Z"/><path class="cls-14" d="M172.36,73l-.55-.23Z"/><path class="cls-27" d="M313.72,113.36,311.59,112l-1.93-1.11.15-5,.48-.47c.35-.69.7-1.38,1.06-2.07l9.85-.49c.18,2.83.53,5.67.43,8.49,0,.69-1.46,1.75-2.37,1.91A34.06,34.06,0,0,1,313.72,113.36Z"/><path class="cls-15" d="M311.35,103.34c-.36.69-.71,1.38-1.06,2.07,0-1.06,0-2.13,0-3.2C310.62,102.58,311,103,311.35,103.34Z"/><path class="cls-5" d="M144.23,211c-.7,3.18-1.38,6.37-2.13,9.55-.29,1.26-1,1.78-2.4,1.25-2.26-.84-4.64-1.37-6.91-2.21-.66-.24-1.66-1.2-1.57-1.61.83-3.54,1.87-7,2.84-10.54l8.58,2.89,1.24.59A.4.4,0,0,1,144.23,211Z"/><path class="cls-27" d="M143.88,210.89l-1.24-.59Z"/><path class="cls-4" d="M185.73,33.86c-.8.56-1.52,1.34-1.81,1.21a2.28,2.28,0,0,0-3.34.9c-.09.15-.7,0-1.07-.07.23-1.55.45-3.1.68-4.65a23.66,23.66,0,0,1,3.26.86A12.55,12.55,0,0,1,185.73,33.86Z"/><path class="cls-4" d="M182,77.18l1.17-.71c2.36,1.76,4.06,3.91,4.12,7a36.36,36.36,0,0,1-3.65-3.22A14.37,14.37,0,0,1,182,77.18Z"/><path class="cls-29" d="M393.86,69.78c-2.24-.75-4.47-1.49-6.7-2.25-.6-2.37-1.19-4.75-1.79-7.12,4-.86,4.25-3.83,4.43-7.19A82.7,82.7,0,0,1,391.23,44c.28-.5.55-1,.82-1.52l1.67-1.61,4.55-.71,1,.3,1,.29,1.37.86c2.6,3.77,2.28,8.1,2.36,12.34.05,2.54-.62,5.37,3,6.18.26.06.4.68.59,1-.46,1.49-.93,3-1.39,4.47-1.35,1.1-2.56,2.5-4.09,3.22-2,1-2.49.39-2.24-1.81a21.28,21.28,0,0,0-.09-2.87c0-.27,0-.55,0-.82a17.86,17.86,0,0,0,2.55-.89c.21-.1.1-.83.13-1.27-.91-1.51-1.83-3-2.74-4.51l-.33-2,.49-.76,1.17-3.25c0-.58,0-1.16,0-1.74-.16-.93-.32-1.86-.47-2.7-1.47.25-2.59.45-3.72.63-3.71.6-4.84,2.19-4,5.78.25,1.13.61,2.23.92,3.34l-2.53,3.5c-.19.34-.37.68-.56,1s-.14.38-.22.57c.06.52-.06,1.31.22,1.49a19.56,19.56,0,0,0,2.86,1.31Q393.71,66.85,393.86,69.78Z"/><path class="cls-1" d="M379.06,40c-5,0-9.95-.13-14.93,0-2.41.07-3.17-.9-2.85-3.5h6.2c3.54,0,7.09-.09,10.63.06.85,0,1.66.88,2.49,1.35Z"/><path class="cls-24" d="M398.27,40.19l-4.55.71A3.11,3.11,0,0,1,398.27,40.19Z"/><path class="cls-24" d="M392.05,42.51c-.27.51-.54,1-.82,1.52C391.51,43.53,391.78,43,392.05,42.51Z"/><path class="cls-24" d="M400.3,40.78l-1-.29Z"/><path class="cls-17" d="M363.26,8.77c.6.91,1.77,1.89,1.66,2.71s-1.4,1.65-2.18,2.47c-.79-.8-2.1-1.53-2.23-2.42s1-1.83,1.62-2.75Z"/><path class="cls-17" d="M372.86,11.25c-1.59,1.27-2.51,2.57-3.35,2.52s-1.71-1.38-2.56-2.16c.77-.82,1.44-2.16,2.32-2.31S371.16,10.26,372.86,11.25Z"/><path class="cls-17" d="M376.94,8.83c.54.87,1.65,1.86,1.5,2.57-.21,1-1.41,1.7-2.18,2.53-.75-.83-2-1.61-2.12-2.51s1.11-1.78,1.74-2.68Z"/><path class="cls-27" d="M346.66,114.34,344.05,113Z"/><path class="cls-27" d="M324.91,113l-2.61,1.32Z"/><path class="cls-27" d="M349,117l-.8-1.07Z"/><path class="cls-27" d="M320.2,116.85l-.71,1.18Z"/><path class="cls-15" d="M337.51,104.81l1,.55Z"/><path class="cls-17" d="M335.6,120.17c.56.94,1.53,1.87,1.54,2.82,0,.67-1.18,1.78-2,1.94a1.82,1.82,0,0,1-2.31-2.17c.17-.93,1.11-1.71,1.7-2.56Z"/><path class="cls-17" d="M329,120.21c.55.87,1.6,1.8,1.51,2.6a2.92,2.92,0,0,1-2.06,2c-.77,0-2.16-1.23-2.16-1.93,0-.92,1.09-1.84,1.71-2.76Z"/><path class="cls-17" d="M341.25,119.59c1.09,1.44,2.2,2.27,2.19,3.08s-1.17,1.56-1.83,2.34c-.82-.72-2.11-1.33-2.34-2.2C339.1,122.13,340.26,121.11,341.25,119.59Z"/><path class="cls-12" d="M119.52,26.93c.23,1.84.54,3.67.68,5.52a28.72,28.72,0,0,1-.16,3.46l-2.21-1.77c-.94,3.22-3.06,3.07-5.38,2.27-2.08-2.59-3.25-5.46-2.64-8.84.07-.41.54-.76.82-1.14.2.14.47.46.59.41,3.12-1.31,6-1.9,7.22,2.85Z"/><path class="cls-29" d="M112.45,36.41c2.32.8,4.44,1,5.38-2.27L120,35.91l.57,1.18c.11.68.21,1.35.32,2l-1.13.39L117.31,38c-.54,1.75-1,3.33-1.54,4.9l-.09.17-.81.08-1.05-.86-1.41-5.13Z"/><path class="cls-29" d="M119.52,26.93l-1.08,2.76c-1.23-4.75-4.1-4.16-7.22-2.85-.12.05-.39-.27-.59-.41,1-1,1.71-2.52,2.88-3,2.09-.9,3.9.19,5.25,1.93l.51.79Z"/><path class="cls-25" d="M112.41,37.11l1.41,5.13c-.26.94-.53,1.89-.8,2.84-.57-1.23-1.14-2.45-1.81-3.86L109,42.35c-.07-.66-.12-1.25-.18-1.84Z"/><path class="cls-12" d="M120.93,39.12c-.11-.68-.21-1.35-.32-2,.28.74.56,1.49.83,2.23Z"/><path class="cls-12" d="M119.27,26.12l-.51-.79Z"/><path class="cls-18" d="M64.59,109c-3,0-6.05,0-9.08,0-1.18,0-2.69.11-2.35-1.64a2.9,2.9,0,0,1,2.19-1.62q9.45-.19,18.9,0c.75,0,1.48,1.07,2.22,1.65-.77.54-1.51,1.49-2.31,1.54C71,109.08,67.78,109,64.59,109Z"/><path class="cls-1" d="M53.66,97.24c0-.56,0-1.11,0-1.67a.43.43,0,0,0,.28-.21c6.82-.06,13.63-.14,20.44-.12.61,0,1.22.75,1.83,1.15-.6.4-1.21,1.14-1.82,1.15-6.64,0-13.29,0-19.93-.08Z"/><path class="cls-23" d="M76.58,101.73a10.44,10.44,0,0,1-2.23.52c-6.32,0-12.65.06-19,0-.72,0-1.43-.69-2.14-1.06a6.42,6.42,0,0,1,2.09-.87c6.33-.07,12.65-.05,19,0a11.33,11.33,0,0,1,2.25.49Z"/><path class="cls-23" d="M53.75,91.86c1.77-1.23,20.18-1.21,21.88,0C73.84,93.12,55.45,93.1,53.75,91.86Z"/><path class="cls-26" d="M40.42,93.21l.9.07c0,.69.09,1.38.13,2.08-1.1-.11-3,.11-3.19-.36C37.38,92.83,39.44,93.55,40.42,93.21Z"/><path class="cls-26" d="M41.84,106.8c.17,1.71-.91,1.85-2.21,1.81-1.48,0-1.88-.8-1.58-2.12Z"/><path class="cls-19" d="M53.66,97.24l.79.22Z"/><path class="cls-19" d="M53.93,95.36a.43.43,0,0,1-.28.21l.08-.19Z"/><path class="cls-12" d="M260.58,37.2c-.31-1.26-.68-2.52-.89-3.8a21.79,21.79,0,0,1-.11-2.81c.24-.7.47-1.41.72-2.11.64-1.8,2-2.27,3.78-2.13,1.45.11,3.14-.31,3.34,2l-2.28,1.08.05.63,3.54.45a33,33,0,0,1,0,3.44,24.16,24.16,0,0,1-.65,3.13l-3.95,5.4Z"/><path class="cls-18" d="M260.58,37.2l3.6,5.28,3.95-5.4,2.53,2.09c.45,1.24.91,2.47,1.37,3.71-2.66-1.69-4.9.08-7.27.68a3.83,3.83,0,0,1-1.48-.16l-6.1-1.14c.22-.78.57-2,.92-3.14Z"/><path class="cls-29" d="M268.73,30.51l-3.54-.45-.05-.63,2.28-1.08c-.2-2.31-1.89-1.89-3.34-2-1.78-.14-3.14.33-3.78,2.13-.25.7-.48,1.41-.72,2.11.09-1.55-.14-3.21.33-4.63a4.47,4.47,0,0,1,5.65-2.84A4.87,4.87,0,0,1,269,28.53Z"/><path class="cls-11" d="M128,149.55l1.45-3.63Z"/><path class="cls-11" d="M129.72,144.22c.06-.77.11-1.54.17-2.31C129.83,142.68,129.78,143.45,129.72,144.22Z"/><path class="cls-27" d="M300.86,104.49c.48.74.95,1.49,1.42,2.24l1,3.08c-.16,1.2-.33,2.41-.5,3.61-3.87,0-7.75-.06-11.63-.07-5.65,0-5.65,0-4.84-5.63a9.31,9.31,0,0,1,13.14-4.19C299.9,103.83,300.38,104.16,300.86,104.49Z"/><path class="cls-26" d="M95.27,8c-1.3.78-2.08,1.62-2.82,1.58-.56,0-1.58-1.3-1.46-1.78a2.67,2.67,0,0,1,1.87-1.66C93.41,6,94.11,7,95.27,8Z"/><path class="cls-26" d="M90.18,7.77c-1.31.92-2,1.82-2.75,1.81S86.25,8.5,85.66,7.89c.62-.59,1.18-1.52,1.9-1.68C88.11,6.09,88.88,7,90.18,7.77Z"/><path class="cls-26" d="M85.05,8c-1.25.77-2.14,1.7-2.63,1.53-.71-.26-1.13-1.32-1.68-2,.67-.47,1.35-1.32,2-1.31S84,7.13,85.05,8Z"/><path class="cls-29" d="M114.45,145.76c-.44,1.89-2,1.86-3.45,2.05a77,77,0,0,1,.9-8.49c.75-3.6,2.22-4.45,5.94-4.18l1,.4.83.36c2.31,3.72,2,7.82,1.69,11.91l-3.25-2a5.93,5.93,0,0,0,.29-6.25,26.32,26.32,0,0,1-3.1,1c-2.12.39-2.17,1.79-1.75,3.4A10.78,10.78,0,0,0,114.45,145.76Z"/><path class="cls-12" d="M121.4,147.81c.27-4.09.62-8.19-1.69-11.91,2.42.31,3.63,1.84,4.07,4.1a13.3,13.3,0,0,1,.48,3.46c-.22,2.81.06,5.38,2.28,7.41l-.83,1.46Z"/><path class="cls-12" d="M118.88,135.54l-1-.4Z"/><path class="cls-15" d="M309.81,105.88l-.15,5C307.77,108.84,307.83,106.81,309.81,105.88Z"/><path class="cls-15" d="M303.24,109.81l-1-3.08Z"/><path class="cls-3" d="M89.49,117.49c-2.19.42-3.87-1.75-3.56-4.6C89.4,112.3,90.39,113.9,89.49,117.49Z"/><path class="cls-3" d="M90.46,119.44c0-.65,0-1.31,0-2l2.27.15Z"/><path class="cls-26" d="M120,98.54l-1.68,5.14-3-.11-1.2-2.25c-.35-1.63-.71-3.26-1.06-4.88l0,0c.09-.33.19-.67.29-1l3.45-.56-2.49-1.09c1-2,2.56-1.7,4-1.24.58.18,1,1,1.66,1.69l-2.66.34,3.3,1.34.17.69c-.07.3-.15.6-.22.89Z"/><path class="cls-15" d="M120.61,95.89l-3.3-1.34,2.66-.34c-.7-.74-1.08-1.51-1.66-1.69-1.42-.46-3-.73-4,1.24l2.49,1.09-3.45.56c-.9-1.93-.11-3.5,1.28-4.73a3.17,3.17,0,0,1,4.09-.08C120.73,91.87,121.16,93.71,120.61,95.89Z"/><polygon class="cls-15" points="113.08 96.42 113.06 96.44 113 96.38 113.08 96.42"/><path class="cls-25" d="M107.12,70.81c.14,1.42.29,2.84.44,4.26.18,1.8-.32,2.88-2.44,2.86q-11.24-.09-22.48,0c-1.73,0-2.49-.63-2.36-2.37s.18-3.53.27-5.3Z"/><path class="cls-15" d="M107.12,70.81l-26.57-.54V67.41c5,0,10.11,0,15.17,0,2.19,0,3-1,2.28-3a3.38,3.38,0,0,0-2.59-1.56c-5-.17-10-.1-14.92-.12,0-.63,0-1.27,0-1.9,5,0,10,0,15-.08a11,11,0,0,0,2.7-.78l8.47-.09.72.9Z"/><path class="cls-25" d="M80.49,62.7c5,0,10-.05,14.92.12A3.38,3.38,0,0,1,98,64.38c.75,2-.09,3-2.28,3-5.06,0-10.12,0-15.17,0Z"/><path class="cls-25" d="M98.17,59.94a11,11,0,0,1-2.7.78c-5,.09-10,.06-15,.08.48-.35,1-1,1.43-1C87.32,59.79,92.75,59.88,98.17,59.94Z"/><path class="cls-25" d="M107.36,60.75l-.72-.9Z"/><path class="cls-1" d="M356.73,45l.43-1.17.48.33-.87.88Z"/><path class="cls-1" d="M356.27,37.47l-.18,1.23-.29-.08.43-1.19Z"/><path class="cls-1" d="M356.23,37.43l.41-.65.28.27-.65.42Z"/><path class="cls-27" d="M19.21,115.07c1-.12,2.05-.28,3.08-.31.1,0,.22.79.34,1.2l-3.3.35Z"/><path class="cls-27" d="M19.06,119.46c.06-.31.13-.61.19-.92l3.4-.12c-.17.67-.34,1.33-.52,2l-2.44,0c-.16-.16-.32-.32-.49-.47A.39.39,0,0,0,19.06,119.46Z"/><path class="cls-27" d="M21,106.88l1.62,1.49c-.52.3-1.05.85-1.55.82a5.09,5.09,0,0,1-1.77-.89Z"/><path class="cls-9" d="M412.39,87.06l.54-.52,2.42-2.33a17.66,17.66,0,0,1,2.09,3c1.7,3.92.31,8.85-3.2,11.87-3.27,2.81-7.21,3.21-10.7,1,.29-.74.59-1.49.89-2.24l2-.29,3.44.13a6.78,6.78,0,0,0,1.74,0c.9-.2,2.39-.43,2.51-.91a5.71,5.71,0,0,0-.7-3,2.26,2.26,0,0,0-1.07-1c-1.27-.62-1.32-1.55-.85-2.69Z"/><path class="cls-26" d="M406.43,97.59l-2,.29-3.49-.49c1.06-1.72,2-3,2.67-4.39a4.53,4.53,0,0,0,.68-2.79c-.84-3-.45-5,1.54-5.9,2.45-1.09,4.64-.25,6.24,2.37a2.92,2.92,0,0,0,.32.38c-.3,1-.59,2.08-.89,3.11a25.46,25.46,0,0,0-3.45-2.37,6.14,6.14,0,0,0-2.47-.07c.07.73.08,1.47.22,2.18a4.31,4.31,0,0,0,.58,1.1c0,.68,0,1.35,0,2-1.24.81-2.91,1.27-2.85,3.57h2.72Z"/><path class="cls-26" d="M58.5,54.21c.37-1.15.45-2.56,1.2-3.35a3.08,3.08,0,0,1,2.92-.36c.79.44,1.09,1.76,1.6,2.69Z"/><path class="cls-26" d="M63.28,57.83a1.5,1.5,0,0,1-.15.42c-1.82,1.15-2.88-.63-4.29-1.1,0-.3.07-.6.1-.9.89-2.74,2.79-1.44,4.59-1.33Z"/><path class="cls-3" d="M63.28,57.83l.25-2.91c-1.8-.11-3.7-1.41-4.59,1.33-.15-.68-.29-1.36-.44-2l5.72-1c-.09,1.51-.19,3-.28,4.52Z"/><path class="cls-3" d="M58.84,57.15c1.41.47,2.47,2.25,4.29,1.1l-1.2,3.23-3.81-3.24Z"/><path class="cls-3" d="M58.14,58.21l-1,2.28Z"/><path class="cls-29" d="M390.11,115.06c-.78-1.88-2.2-2.8-4.13-2.06-.89.33-1.5,1.38-2.24,2.1a4.39,4.39,0,0,1,0-1.25c.44-1.6.51-3.72,1.58-4.6.75-.6,3.54,0,4.25,1C390.39,111.34,390,113.41,390.11,115.06Z"/><path class="cls-26" d="M286,76.38c-.81.72-1.63,1.44-2.82,2.51L281.84,76a13.71,13.71,0,0,1-.12-2.21c.1-1,.37-2,.56-3L285.63,72Z"/><path class="cls-3" d="M285.63,72l-3.35-1.15c-.19,1-.46,2-.56,3a13.71,13.71,0,0,0,.12,2.21l-2,.12.48-5.79c1.54-1,2.73-3.24,5.08-1.5C286.34,69.85,287.6,70.8,285.63,72Z"/><path class="cls-29" d="M285.4,68.87c-2.35-1.74-3.54.5-5.08,1.5-1-1.42-.12-2.53.94-3.06a6.57,6.57,0,0,1,3.46-.32C285,67,285.18,68.21,285.4,68.87Z"/><path class="cls-27" d="M300.63,189.76V174.17c2.69-.14,5.16-.33,7.64-.38,2.75-.06,5.52-.07,8.27.08.6,0,1.17.83,1.75,1.27-2.53,1.61-2.54,2.56,0,5.09,0,1.16,0,2.31,0,3.46a3.54,3.54,0,0,0-.75.62c-2.63,4-4,4.47-8.73,3.81-1.17-.17-2.53,1-3.79,1.52l-.85,0Zm12.6-9-3.8-1.59c.35,2.22.6,3.82.86,5.43l-1.44,1.37c1.59,2,3.26,1.23,4.93.36,2.2-1.15,2.66-3.13,2.29-5.33-.12-.71-.85-1.31-1.3-2C314.26,179.56,313.75,180.14,313.23,180.71Z"/><path class="cls-25" d="M305,189.64c1.26-.55,2.62-1.69,3.79-1.52,4.72.66,6.1.21,8.73-3.81a3.54,3.54,0,0,1,.75-.62c.47,6.11.47,6.13-5.53,6.11C310.13,189.79,307.55,189.69,305,189.64Z"/><path class="cls-25" d="M300.63,189.76l3.49-.08-1.32,2.24h15.69c-1.82,1.93-10.26,2.05-17.48.73Z"/><path class="cls-25" d="M304,170.5c.22.7.43,1.4.65,2.1a2.65,2.65,0,0,1-.49.09c-1.06,0-2.72,1.35-2.94-.68C301,170.2,302.81,170.61,304,170.5Z"/><path class="cls-25" d="M318.26,180.23c-2.51-2.53-2.5-3.48,0-5.09Z"/><path class="cls-25" d="M318.23,172.56c0-.68.11-1.36.17-2a3.18,3.18,0,0,1,1.24,0,12.05,12.05,0,0,1,1.59,1.12,12.2,12.2,0,0,1-1.77,1A3.26,3.26,0,0,1,318.23,172.56Z"/><path class="cls-26" d="M39.78,88.62l2,1.5a5.89,5.89,0,0,1-2,.89c-.58,0-1.19-.52-1.79-.82Z"/><path class="cls-11" d="M242.52,143.81c1.82.34,3.62.82,5.45,1,2.63.22,5.28.21,7.92.3,0,.2,0,.4,0,.59l-2.29.1c-3.1-.06-6.21-.09-9.32-.21C243.24,145.54,241.84,145.64,242.52,143.81Z"/><path class="cls-27" d="M290.29,143.54c.07-.57.07-1.59.23-1.62a9.72,9.72,0,0,1,2.9,0c.13,0,.12,1,.18,1.62Z"/><path class="cls-27" d="M294,147.6l-4,0c-.15-1.48.67-1.82,2-1.83S294.05,146.13,294,147.6Z"/><path class="cls-29" d="M311,151.64a14,14,0,0,1-1.43-2.88,3.8,3.8,0,0,1,2.9-4.78,3.75,3.75,0,0,1,4.49,3.6c0,1.57-.79,3.14-1.23,4.71a6.59,6.59,0,0,1-1-1.91,25.7,25.7,0,0,1,0-3.66C311.57,147.47,311.43,149.66,311,151.64Z"/><path class="cls-26" d="M311,151.64c.42-2,.56-4.17,3.72-4.92a25.7,25.7,0,0,0,0,3.66,6.59,6.59,0,0,0,1,1.91l1,1.15-1.41.27-4.92-1.05Z"/><path class="cls-6" d="M315.34,153.71l1.41-.27,1.45.17-.15,3.12a.7.7,0,0,1-.23.11l-3.39.52C314.73,156.14,315,154.92,315.34,153.71Z"/><path class="cls-26" d="M310.15,153.68l-1-.25,1-.65C310.16,153.08,310.16,153.38,310.15,153.68Z"/><path class="cls-26" d="M147.27,133l-.92-2.25a22.34,22.34,0,0,1-.65-4.68,3,3,0,0,1,3.52-3.08c2.11.21,3.56,1.25,3.48,3.53a25.92,25.92,0,0,1-.75,4c-.32.86-.63,1.72-.94,2.59Z"/><path class="cls-23" d="M99.62,163.26l3.85-3.56.76.11v7.3c0,2.86.07,5.73-.06,8.6,0,.65-.74,1.82-1.16,1.83-5.52.12-11.05.08-17.28.08l2.9-3.51,2.63,0c.75.53,1.46,1.4,2.27,1.52a6.91,6.91,0,0,0,7.63-7.95A30.56,30.56,0,0,0,99.62,163.26Z"/><path class="cls-17" d="M91.26,174.15l-2.63,0c-.48-1.5-1.07-3-1.43-4.52-.59-2.62,1-5.59,3.7-7.08a7.1,7.1,0,0,1,7.21.71l-1.86,4.05-4.16-2.46v7Z"/><path class="cls-24" d="M96.25,167.27l1.86-4.05,1.51,0a30.56,30.56,0,0,1,1.54,4.46,6.91,6.91,0,0,1-7.63,7.95c-.81-.12-1.52-1-2.27-1.52.28-.78.56-1.56.83-2.35l5.39-2.36.68-.47-.54-.41Z"/><path class="cls-13" d="M344.18,167.79c-2.13-2.71-2.59-5.48-.71-8.41C346.54,161.12,346.77,164.72,344.18,167.79Z"/><path class="cls-13" d="M340,168.84l2.74.58c-2.12,1-3.87,2.26-6.26.43l1.66-1Z"/><path class="cls-26" d="M340,168.84h-1.86c-.11-2-.23-4-.34-6l1-.12C340.63,164.36,339.55,166.8,340,168.84Z"/><path class="cls-26" d="M114.45,145.76a10.78,10.78,0,0,1-.86-1.82c-.42-1.61-.37-3,1.75-3.4a26.32,26.32,0,0,0,3.1-1,5.93,5.93,0,0,1-.29,6.25Z"/><path class="cls-25" d="M142.9,93.67c-2.1-1.36-2.46-5.17-.69-7.21s6-2.27,8-.4c2.51,2.33,2.57,5.13.16,7.65-.24-1.69-.93-3-2.74-3.47l-1.37-3c-.33,1-.65,2-1,3a.74.74,0,0,0,0,.25C143.47,90.69,143.22,92.21,142.9,93.67Z"/><path class="cls-12" d="M147.67,90.24c1.81.45,2.5,1.78,2.74,3.47-2.09,2.84-5.83,2.82-7.51,0,.32-1.46.57-3,2.46-3.24l1,1.65Z"/><path class="cls-26" d="M152.21,100.34c.19,1.45-.53,2-1.9,1.93-2.76,0-5.53,0-8.29,0-1.41,0-2-.59-1.85-2l1.48-.12,4.07.12h.93Z"/><path class="cls-27" d="M305.63,40.54c-2.27-.95-1.8-2.41-.52-3.74a2.94,2.94,0,0,0,.84-3.48,4.38,4.38,0,0,1,1.44-3.8c.81-.6,2.58,0,3.88.23.49.1.86.78,1.28,1.19l-1.14,3.92c-.5.86-1.65,2.12-1.41,2.49,1.53,2.39-.19,2.58-1.75,3h-1.61l-.47,0Zm4.4-6.1.47-1.4-2.91-.92c-.07.38-.29,1-.18,1.09A28.38,28.38,0,0,0,310,34.44Zm-2.67,4-.3-.25c0,.06-.14.16-.13.18s.2.17.3.26Z"/><path class="cls-22" d="M311.41,34.86l1.14-3.92,2.14-1.61a6.66,6.66,0,0,1,2.18,6.76,7.86,7.86,0,0,1-5.82,6.28,7.56,7.56,0,0,1-3.69,0c-.69-.18-1.16-1.22-1.73-1.87l.53-.17.25,0,.23-.08h1.61c.24.06.5.21.72.16,1.72-.34,3.43-.72,5.14-1.09Z"/><path class="cls-2" d="M81.89,135.32c1.32-1.29,2.2-1.32,3.18.55,1.45,2.76,1,5.19-.69,7.51a7,7,0,0,1-7.15,3.19c-.73-.12-1.27-1.35-1.89-2.07l3.34-.31.77,0,3.41-.7c-.43-1.11-.82-2.23-1.29-3.32a4.8,4.8,0,0,0-.79-1l.34-1.41.58-1Z"/><path class="cls-8" d="M81.89,135.32c-.06.48-.12,1-.19,1.44s-.38.67-.58,1-.22.94-.34,1.41l-1.29.1-2.19.19c1.14,1.61-1,3.68,1.38,4.74l-3.34.3c-2.29-.51-2.25-1.76-.86-3.16,1.18-1.18,1.9-2.13.72-3.85-.33-.49.37-2.36,1-2.7a8.77,8.77,0,0,1,4-.5C80.77,134.31,81.33,135,81.89,135.32Z"/><path class="cls-15" d="M19.69,120.37l2.44,0Z"/><path class="cls-15" d="M19.06,119.46a.39.39,0,0,1,.14.44,3.31,3.31,0,0,1-.26-.27S19,119.52,19.06,119.46Z"/><path class="cls-3" d="M83.35,44.49c-1.21,1.47-2.43,2.06-3.66,0l-.93-4,3.47-1.63L84,40.73Z"/><path class="cls-29" d="M84,40.73,82.23,38.9l-3.47,1.63c-.32-3.33.63-4.74,3-4.4S85,38.39,84,40.73Z"/><path class="cls-25" d="M147.27,133,151,133c-.44,1.16-.87,2.32-1.3,3.48l-1,.06C148.21,135.36,147.74,134.16,147.27,133Z"/><path class="cls-14" d="M368.83,134.61c0,2.32.09,4.65.1,7,0,3.34-.69,3.78-4.1,2.69,2.61-1.39,2.7-2.06.49-3.9l.51-2.18Z"/><path class="cls-5" d="M359.78,138.21c-3.19-2.49-2.24-7.76,1.48-8.61.1,1.23-.28,2.72,1.62,3l0,0-.08,1a25.33,25.33,0,0,0-2,2.3A14.69,14.69,0,0,0,359.78,138.21Z"/><path class="cls-4" d="M365.83,138.19l-.51,2.18-3,0a3.43,3.43,0,0,1,2.6-5.29Z"/><path class="cls-14" d="M364.93,135.05a3.43,3.43,0,0,0-2.6,5.29c-2,.7-2.38-.61-2.55-2.13a14.69,14.69,0,0,1,1-2.36,23.93,23.93,0,0,1,2-2.29l1.62.52Z"/><path class="cls-26" d="M362.88,132.55c-1.9-.23-1.52-1.72-1.62-3l.6-.78.69.19,3.4,1,0,.6-3.07.43-.21,0,.13.12C362.81,131.61,362.85,132.08,362.88,132.55Z"/><path class="cls-3" d="M393.8,56.05c-.31-1.11-.67-2.21-.92-3.34-.8-3.59.33-5.18,4-5.78,1.13-.18,2.25-.38,3.72-.63.15.84.31,1.77.47,2.71-1.21-.21-2.43-.33-3.61-.65-1.35-.37-3.78,1.18-3.88,2.61-.27,3.76,1.91,5.17,5.82,3.78l.33,2-3.58,2.88Z"/><path class="cls-1" d="M393.57,63.93a19.56,19.56,0,0,1-2.86-1.31c-.28-.18-.16-1-.22-1.49l3.08.29Z"/><path class="cls-19" d="M402.51,61.23c0,.44.08,1.17-.13,1.27a17.86,17.86,0,0,1-2.55.89c0-.69-.07-1.37-.1-2.16Z"/><path class="cls-1" d="M390.71,60.56c.19-.33.37-.67.56-1C391.09,59.89,390.9,60.23,390.71,60.56Z"/><path class="cls-15" d="M341.59,101l1.35-.66Z"/><path class="cls-21" d="M364.93,135.05c-.16-.33-.33-.65-.49-1,.15-.29.3-.58.46-.86l2.8-1.2,1.12,1.14c0,.48,0,1,0,1.45l-3,3.58Z"/><path class="cls-15" d="M376.54,46.59l0,0-.15-.31Z"/><path class="cls-25" d="M405.93,148.88l-1.08,4.76c-.33-2.14-.67-4.29-1-6.43Z"/><path class="cls-26" d="M390.18,116.61l-3.06,2.81c-.67-.83-1.84-1.65-1.85-2.49s1.27-1.67,2.17-2C387.93,114.79,388.81,115.74,390.18,116.61Z"/><path class="cls-27" d="M407.8,153.61q-.76-2.46-1.51-4.94l2.5-1.9c0,.79,0,1.59.07,2.39C408.5,150.64,408.15,152.13,407.8,153.61Z"/><path class="cls-22" d="M115.32,103.57l3,.11a10.77,10.77,0,0,0-.45,2.86c.28,2.42-.74,2.55-2.53,1.66C115.34,106.66,115.33,105.11,115.32,103.57Z"/><path class="cls-3" d="M367.7,132l-2.8,1.2-2-.65,0,0c0-.47-.07-.94-.1-1.41l.08-.08,3.07-.43,0-.6-3.4-1c1.45-.11,3-.54,4.32-.17C367.4,129,367.44,130.91,367.7,132Z"/><path class="cls-21" d="M113,45.08c.27-.95.54-1.9.8-2.84l1.05.86.45.59.36-.67.09-.17,1.85-.46-.24,3.67H113Z"/><path class="cls-25" d="M117.62,42.39l-1.85.46c.5-1.57,1-3.15,1.54-4.9l2.49,1.56Z"/><path class="cls-27" d="M146.65,100.28h0Z"/><path class="cls-13" d="M226.26,74.28c-.72-1.41-.33-2.45.82-3.52a26.2,26.2,0,0,0,2.64-3.34l1.06.55V91.55c-5.52.08-11,.18-16.57.23-2.43,0-4.85-.1-7.28-.15,2.23-3,4.4-6.1,8.18-7.44.41-.15.7-.62,1-.94l1.31-.6h1.18l.83,0,.62.35.32.3.58.31c1.35,0,2.83.19,1.94-2l4.82-4.16c-.06-.49-.12-1-.17-1.48-.27-.4-.53-.81-.8-1.22Zm-5.68,11.88c-1-.72-1.62-1.57-2.16-1.51s-1.11,1-1.65,1.52c.54.54,1,1.45,1.62,1.5S219.6,86.88,220.58,86.16Z"/><path class="cls-26" d="M226.26,74.28l.53.52c.27.41.53.82.8,1.22,0,.5.11,1,.17,1.48-1-.27-2.19-.24-2.81-.84-3.17-3-9.69-3-12.89.08-.53.52-1.5.59-2.26.87.08-.83-.14-2,.32-2.45a8.75,8.75,0,0,1,3.4-2.43A14.12,14.12,0,0,1,226.26,74.28Z"/><path class="cls-26" d="M218.33,75.1c2.1,1.08,4,2,5.82,3.05.29.17.19,1,.26,1.55-.54,0-1.29.31-1.61,0-3-2.45-5.9-2.27-8.89,0-.36.28-1.2-.07-1.82-.12.15-.61.1-1.55.48-1.76C214.33,76.92,216.2,76.12,218.33,75.1Z"/><path class="cls-26" d="M219.48,82.68l-.83,0h-1.18l-1.31.6H213.7c.87-3.59,4.51-4.11,9.24-1.59.89,2.17-.59,2-1.94,2l-.58-.31-.32-.3Z"/><path class="cls-17" d="M192.81,32l1,.82Z"/><path class="cls-16" d="M233.26,52.22l2.91-1.2c.27,2.74.55,5.48.88,8.81l-8.28-3.69,2.52-3,.78-.07Z"/><path class="cls-16" d="M216.06,54.73c0-3.41.41-3.64,3.31-2.06l.21.13,3.23,2.67c-1.59.87-3.1,2.25-4.77,2.48C215.5,58.31,216.33,55.93,216.06,54.73Z"/><path class="cls-17" d="M212.49,35l-2,1Z"/><path class="cls-17" d="M213,34.55l-.43.37Z"/><path class="cls-17" d="M233.26,52.22l-1.19.88C232.46,52.8,232.86,52.51,233.26,52.22Z"/><path class="cls-20" d="M169.07,117.93a67.05,67.05,0,0,1-.16-6.79c0-.65,1.09-1.39,1.83-1.79.52-.28,1.32-.07,2-.07h77.85c5.63,0,5.64,0,5.6,5.67,0,1-.15,2-.23,3Z"/><path class="cls-27" d="M242.52,143.81c-.68,1.83.72,1.73,1.75,1.76,3.11.12,6.22.15,9.32.21-.7.33-1.4.95-2.1.95-15.23,0-30.46,0-45.69-.06.06-2.1.11-4.2.17-6.29,11.27,0,22.54-.1,33.81-.09a9.7,9.7,0,0,1,2.41.61l.35,1.67C242.53,143,242.53,143.4,242.52,143.81Z"/><path class="cls-27" d="M242.3,126.56q0,3.06-.07,6.12c-7-.18-13.93-.41-20.9-.53-5.14-.09-10.27-.05-15.4-.06,0-2,0-4.07.08-6.11,10.77,0,21.54,0,32.31.06A30.12,30.12,0,0,1,242.3,126.56Z"/><path class="cls-25" d="M242.3,126.56a30.12,30.12,0,0,0-4-.52C227.55,126,216.78,126,206,126l0-2.85,39.89-.13c1.85,0,3.71-.1,5.55.06a7.09,7.09,0,0,1,2.26,1c-2.76,0-5.52,0-8.28.11a10.24,10.24,0,0,0-2.46.71Z"/><path class="cls-8" d="M206,123.13l0,2.85c0,2-.06,4.07-.08,6.11-3.2.13-6.39.3-9.59.39-1.82.06-2.79-.71-2.68-2.73a32.88,32.88,0,0,0-.27-4.53c-.12-1.46.42-2.23,2-2.21C198.9,123.08,202.44,123.1,206,123.13Z"/><path class="cls-7" d="M206,140.38c-.06,2.09-.11,4.19-.17,6.29-3.37,0-6.73.05-10.09.14-1.51,0-2-.62-2.1-2.1-.37-6.81-.41-6.85,6.29-7.27,2-.12,4,0,6,0C205.94,138.44,206,139.41,206,140.38Z"/><path class="cls-16" d="M204.82,168.07c.09,1,.18,2.06.28,3.09-.07,2-.15,4-.22,6h0l-12.07-.1-.21-7.47.27-1.47Z"/><path class="cls-25" d="M206,140.38c0-1,0-1.94,0-2.9,10.53,0,21.06-.06,31.6-.12,1.59,0,3.19-.16,4.78-.24.11,1.26.22,2.51.32,3.77a1.31,1.31,0,0,0-.44,0,9.7,9.7,0,0,0-2.41-.61C228.51,140.28,217.24,140.34,206,140.38Z"/><path class="cls-30" d="M182.62,162.76c-.12-3-1.24-4.49-4.06-4.27-2.49.2-2.43,2.13-2.71,4.2-2.26-1.24-2.7-3.07-2.59-5.12a5.86,5.86,0,0,1,11.05-2.17C185.58,157.91,185.11,160.38,182.62,162.76Z"/><path class="cls-17" d="M174.74,176.44c-2.28-1.72-1.86-3.95-1-6.11A6,6,0,0,1,180,167a6.23,6.23,0,0,1,5,4.7c.59,3-.63,5.37-3.33,6.45-.35-1.59-.7-3.19-1-4.77,0-.67,0-1.34-.05-2,0-.82.22-1.88-.19-2.39s-1.91-.54-2.17-.2c-.47.61-.38,1.66-.53,2.52l-.11,1.58Z"/><path class="cls-8" d="M176.92,133.21c-.46.13-1,.51-1.35.35-1.82-1-3-4.37-2.31-6.5a6.23,6.23,0,0,1,5.81-4.4,6.45,6.45,0,0,1,6,4.91,5.48,5.48,0,0,1-3,6,6.05,6.05,0,0,0,.65-1.6c.25-2.13,1.27-4.48-1.39-5.93-1.65-1.93-2-2-3.31-.29l-.23.14-.49,1.34-.14,1.3C177.09,130.1,177,131.66,176.92,133.21Z"/><path class="cls-27" d="M204.93,153.42a.91.91,0,0,1-.07-.49,16.36,16.36,0,0,1,2.9-.52q20.94-.06,41.88,0a11.8,11.8,0,0,1,3,.83l-.17.16Z"/><path class="cls-12" d="M174.74,176.44l2.79-3.59c1,.26,1.77,2,3.05.48l1,4.78C178.83,179.66,176.38,179.07,174.74,176.44Z"/><path class="cls-15" d="M178,125.77c1.29-1.67,1.66-1.64,3.31.28-.47,2,1.83,4.27-.68,6a.55.55,0,0,1-.1-.43l.07-1.51Z"/><path class="cls-25" d="M180.66,132.06c2.51-1.74.21-4,.68-6,2.66,1.46,1.64,3.81,1.39,5.94a6.05,6.05,0,0,1-.65,1.6C180.2,134.39,180.87,132.81,180.66,132.06Z"/><path class="cls-11" d="M242.94,124.93a10.24,10.24,0,0,1,2.46-.71c2.76-.12,5.52-.09,8.28-.11l.66.63c-1.56.08-3.12.12-4.67.26-1.77.17-3.53.42-5.29.63l-.71.18Z"/><path class="cls-18" d="M192.8,177.06l12.07.1C203.16,178.7,194.29,178.63,192.8,177.06Z"/><path class="cls-28" d="M182.78,146.2c0,.4.07.8.11,1.2l-.38.39-.38.27-2.07,1c-.08-1.39-.17-2.79-.25-4.19l.56-.77Z"/><path class="cls-23" d="M244.38,125.63c1.76-.21,3.52-.46,5.29-.63,1.55-.14,3.11-.18,4.67-.26l1.29-.07,1,.27h.84l5.61.71Z"/><path class="cls-28" d="M176,148.18c0-1.68-.56-3.65,2-4.11l.53.93c0,1.36,0,2.73-.07,4.09Z"/><path class="cls-12" d="M178.45,149.09c0-1.36.05-2.73.07-4.08l1.29-.11c.08,1.4.17,2.8.25,4.19Z"/><path class="cls-15" d="M176.92,133.21c.08-1.55.17-3.11.25-4.66.08.81.12,1.63.24,2.43.16,1,.55,1.66,1.59.68l.23.05C179.33,133.54,178.21,133.51,176.92,133.21Z"/><path class="cls-25" d="M180.63,130.12l-.07,1.51-1.33.07-.23,0Z"/><path class="cls-18" d="M192.86,168.12l-.27,1.47C191.49,168.89,191.66,168.41,192.86,168.12Z"/><path class="cls-11" d="M256.61,124.94l-1-.27.36-.53Z"/><path class="cls-7" d="M182.13,148.06l.38-.27Z"/><path class="cls-25" d="M204.93,153.42h47.51c.5,2.39-.9,2.59-2.77,2.59q-22.24,0-44.5,0Z"/><path class="cls-26" d="M250.7,136.78l6-.3,0-.21-7-.6c1.66-1.43,7.38-2.07,8-1.13s.49,2.1.73,3.37h-7.79Z"/><path class="cls-11" d="M242.19,140.9a1.31,1.31,0,0,1,.44,0l-.09,1.68C242.42,142,242.31,141.46,242.19,140.9Z"/><path class="cls-11" d="M243.85,131.64l1.29.85Z"/><path class="cls-2" d="M189.73,101.74c-.11-.4-.23-.79-.34-1.19C189.5,101,189.62,101.34,189.73,101.74Z"/><polygon class="cls-3" points="164.56 161.01 164.67 160.83 164.76 161.03 164.56 161.01"/><path class="cls-26" d="M399.44,54.75c-3.91,1.39-6.09,0-5.82-3.78.1-1.43,2.53-3,3.88-2.61,1.18.32,2.4.44,3.61.65,0,.57,0,1.15,0,1.73L399.93,54Z"/><path class="cls-3" d="M399.93,54l1.17-3.25Z"/><path class="cls-25" d="M115.68,43l-.36.67-.45-.59Z"/><path class="cls-3" d="M406.38,91a4.31,4.31,0,0,1-.58-1.1c-.14-.71-.15-1.45-.22-2.18a6.14,6.14,0,0,1,2.47.07,25.46,25.46,0,0,1,3.45,2.37c-.47,1.14-.42,2.07.85,2.69a2.26,2.26,0,0,1,1.07,1,5.71,5.71,0,0,1,.7,3c-.12.48-1.61.71-2.51.91a6.78,6.78,0,0,1-1.74,0c.05-.39.09-.77.14-1.15h2.57l.37-.87-3.62-3.08C409.36,90.23,407.14,92,406.38,91Z"/><path class="cls-18" d="M410,96.57c-.05.38-.09.76-.14,1.15l-3.44-.13c-.05-.33-.1-.66-.16-1,.05-1.19.09-2.38.13-3.57,0-.67,0-1.34,0-2,.76.94,3-.78,2.95,1.61C408.2,94.17,408.86,95.41,410,96.57Z"/><path class="cls-3" d="M406.4,93c0,1.19-.08,2.38-.13,3.57h-2.72C403.49,94.3,405.16,93.84,406.4,93Z"/><path class="cls-25" d="M313.23,180.71l1.54-1.72c.45.65,1.18,1.25,1.3,2,.37,2.2-.09,4.18-2.29,5.33-1.67.87-3.34,1.63-4.93-.36l1.44-1.37C313.37,183.75,314.06,182.85,313.23,180.71Z"/><path class="cls-5" d="M313.23,180.71c.83,2.14.14,3-2.94,3.84-.26-1.61-.51-3.21-.86-5.43Z"/><path class="cls-18" d="M97.48,169.44l-5.39,2.36v-7l4.16,2.46,1.37,1.29C97.58,168.86,97.53,169.15,97.48,169.44Z"/><path class="cls-17" d="M97.48,169.44c0-.29.1-.58.14-.88l.54.41Z"/><path class="cls-17" d="M147.67,90.24l-1.27,1.84-1-1.65a.74.74,0,0,1,0-.25c.32-1,.64-2,1-3Z"/><path class="cls-25" d="M311.41,34.86l2.7,4.53c-1.71.37-3.42.75-5.14,1.09-.22.05-.48-.1-.72-.16,1.56-.39,3.28-.58,1.75-3C309.76,37,310.91,35.72,311.41,34.86Z"/><path class="cls-25" d="M310,34.44a28.38,28.38,0,0,1-2.62-1.23c-.11-.06.11-.71.18-1.09l2.91.92Z"/><path class="cls-25" d="M307.36,38.48l-.13.19c-.1-.09-.21-.17-.3-.26s.09-.12.13-.18Z"/><path class="cls-25" d="M306.64,40.33l-.23.08-.25,0Z"/><path class="cls-4" d="M79.49,139.27l1.29-.1a4.8,4.8,0,0,1,.79,1c.47,1.09.86,2.21,1.29,3.32l-3.41.7c0-.5.06-1,.1-1.52l0-.87Z"/><path class="cls-27" d="M79.55,142.64c0,.51-.07,1-.1,1.52l-.77,0c-2.37-1.05-.24-3.12-1.38-4.73l2.19-.19v2.5Z"/><path class="cls-4" d="M81.12,137.76c.2-.33.39-.67.58-1C81.51,137.1,81.32,137.43,81.12,137.76Z"/><path class="cls-26" d="M362.9,132.57l2,.65c-.16.28-.31.57-.46.86l-1.62-.52C362.85,133.23,362.87,132.9,362.9,132.57Z"/><path class="cls-3" d="M362.78,131.14l-.13-.12.21,0Z"/><path class="cls-3" d="M220.58,86.16c-1,.72-1.62,1.55-2.19,1.51s-1.08-1-1.62-1.5c.54-.54,1-1.45,1.65-1.52S219.61,85.44,220.58,86.16Z"/><path class="cls-22" d="M227.59,76c-.27-.4-.53-.81-.8-1.22C227.06,75.21,227.32,75.62,227.59,76Z"/><path class="cls-22" d="M217.47,82.65h0Z"/><path class="cls-22" d="M219.48,82.68l.62.35Z"/><path class="cls-22" d="M220.42,83.33l.58.31Z"/><path class="cls-12" d="M177.64,171.27c.15-.86.06-1.91.53-2.52.26-.34,1.82-.22,2.17.2s.16,1.57.19,2.38Z"/><path class="cls-3" d="M177.64,171.27l2.89.06c0,.67,0,1.34.05,2-1.28,1.47-2.05-.23-3.05-.49C177.57,172.33,177.61,171.8,177.64,171.27Z"/><path class="cls-29" d="M180.63,130.12,179,131.66c-1,1-1.43.36-1.59-.68-.12-.8-.16-1.62-.24-2.43.05-.43.1-.87.14-1.3s.33-.9.49-1.34l.23-.14Z"/><path class="cls-15" d="M177.8,125.91c-.16.44-.32.89-.49,1.34C177.48,126.8,177.64,126.35,177.8,125.91Z"/><path class="cls-15" d="M182.78,146.2l-2.41-2.07c.09-.76.17-1.51.26-2.27l.55-1.12C184,141.38,184.65,143.68,182.78,146.2Z"/><path class="cls-17" d="M180.63,141.86c-.09.76-.17,1.51-.26,2.27l-.56.77-1.29.11-.53-.94c-.14-.7-.29-1.41-.43-2.12Z"/><path class="cls-1" d="M180.63,141.86l-3.07.09.57-2.57,3.05,1.35C181,141.11,180.81,141.48,180.63,141.86Z"/><path class="cls-9" d="M410,96.57c-1.15-1.16-1.81-2.4-.68-3.95L413,95.7l-.37.87Z"/><path class="cls-8" d="M79.55,142.64l-.06-.87Z"/></g></g></svg>